<?xml version="1.0" standalone="no"?>
  <!DOCTYPE svg PUBLIC "-//W3C//DTD SVG 1.1//EN" "http://www.w3.org/Graphics/SVG/1.1/DTD/svg11.dtd" >
  <svg>
  <metadata>
  Created by font-carrier
  </metadata>
  <defs>
  <font id="Noteworthy-Bold" horiz-adv-x="1190" vert-adv-y="1190" >
    <font-face
      
      font-family="Noteworthy"
      
      font-weight="400"
      
      font-stretch="normal"
      
      units-per-em="800"
      
      ascent="852"
      
      descent="-289"
      
    />
      <missing-glyph />

      

      
      <glyph glyph-name="uni21" unicode="&#x21;" d="M203 65C203 78 191 89 167 98C149 105 131 108 114 108C67 108 43 89 43 50C43 37 47 23 55 8C85-5 105-11 116-11C174-11 203 14 203 65ZM232 634C232 647 224 657 208 666C194 673 180 676 166 676C142 676 122 669 105 655C104 650 103 645 103 638C103 626 104 608 109 583C113 559 116 541 116 529C116 498 110 453 97 392C85 332 79 287 79 256C79 227 84 203 94 184C105 177 118 174 131 174C140 174 148 175 155 177C164 186 171 194 175 199C168 228 164 251 164 268C164 279 169 303 169 310C176 389 181 439 184 460C191 519 203 567 218 605L227 619C230 624 232 629 232 634Z"  horiz-adv-x="269" vert-adv-y="800"  />

      
      <glyph glyph-name="uni22" unicode="&#x22;" d="M105 662C90 676 79 683 73 683C41 683 25 663 25 624C25 610 26 564 28 486C35 471 46 464 61 464C79 464 90 468 95 477C98 483 99 496 99 516C99 589 101 638 105 662ZM232 646C232 654 225 661 211 668C200 674 189 677 179 677C169 677 160 666 152 643C145 624 141 609 141 596C141 589 142 553 143 486C151 471 162 464 176 464C202 464 215 480 215 513C215 528 212 565 212 578C212 592 215 607 222 622C229 637 232 645 232 646Z"  horiz-adv-x="268" vert-adv-y="800"  />

      
      <glyph glyph-name="uni23" unicode="&#x23;" d="M241 259L189 256C198 344 204 410 207 454L235 454L268 454ZM455 484C455 501 446 515 427 525C412 534 395 538 376 538L372 538C373 544 379 562 389 592C398 617 402 633 402 642C402 670 372 690 344 690C337 690 322 682 297 666L279 533L220 531L226 576C236 608 241 627 241 633C241 661 221 680 193 680C181 680 164 673 141 660C134 601 130 556 128 526L77 523C60 512 51 497 51 480C51 471 53 460 57 449C62 434 68 427 75 427C88 427 102 429 115 434L100 252C61 252 43 252 44 252C31 252 25 242 25 222C25 209 29 195 36 180C44 162 54 153 66 153C70 153 77 155 87 158C78 103 74 62 74 35C74 15 95-10 114-10C149-10 166 10 166 50C166 58 171 101 181 179C193 180 201 180 205 180L230 180C223 135 220 96 220 63C220 47 224 32 233 18C242 2 255-6 271-6C296-6 321 15 321 40C321 45 316 59 316 66C316 105 317 141 320 175C333 175 365 171 378 171C405 171 419 187 419 220C419 249 392 263 338 263L330 263C341 346 350 408 356 449C371 449 402 435 414 435C441 435 455 451 455 484Z"  horiz-adv-x="501" vert-adv-y="800"  />

      
      <glyph glyph-name="uni24" unicode="&#x24;" d="M358 234C358 216 354 207 346 206L324 204L324 253C324 253 331 252 345 249C354 247 358 242 358 234ZM247 349C231 356 211 364 211 380C211 391 215 401 222 408L247 427ZM476 499C476 513 466 525 447 534C430 542 414 546 398 546C391 546 373 543 345 538C346 583 349 607 353 612C360 620 364 628 364 637L364 658L343 674C334 681 326 683 318 683C286 683 252 662 252 631L252 513C206 489 176 472 163 461C132 437 117 408 117 375C117 346 131 321 160 302C175 292 203 280 242 266C242 231 243 210 246 201C206 202 178 206 163 214L127 241C113 251 100 257 86 257C71 257 58 253 46 246C32 237 25 226 25 213C25 190 53 170 108 153C153 140 191 133 222 133L233 133C238 134 242 134 245 134C246 81 255 30 271-17L296-17C313-17 325-12 331 0C334 8 336 23 336 44C336 51 331 71 331 75C328 93 328 114 328 139L328 145C385 164 415 174 416 175C449 192 466 215 466 246C466 274 449 295 415 308C386 315 357 323 328 331C331 386 335 427 338 454C341 455 344 455 348 455C356 455 377 452 385 452C405 452 424 456 441 462C464 471 476 482 476 499Z"  horiz-adv-x="524" vert-adv-y="800"  />

      
      <glyph glyph-name="uni25" unicode="&#x25;" d="M212 446C203 405 185 385 158 385C123 385 106 419 106 486C106 491 107 496 108 502C133 471 168 454 214 449ZM584 168C584 143 578 120 567 98C553 72 535 59 512 59C491 59 474 70 463 92C454 109 449 130 449 153C449 172 454 195 465 222C476 249 489 268 503 280C509 273 520 266 536 259C552 252 563 244 569 235C579 221 584 199 584 168ZM226 518C209 519 193 523 180 532C164 541 156 554 156 570C156 589 162 599 175 599C188 599 199 588 210 567C220 549 225 533 226 518ZM561 622C561 653 529 675 497 675C483 675 473 671 466 662C463 658 457 647 450 629C443 612 422 590 385 565C353 544 325 529 301 520C298 559 285 594 262 623C236 656 204 672 167 672C118 672 81 650 56 606C35 570 25 526 25 473C25 370 70 318 161 318C228 318 273 363 295 453L360 473L261 263C213 161 191 92 191 57C191 51 191 38 192 18C210 1 225-8 238-8C257-8 273 7 273 24C273 32 269 39 261 46C276 107 313 197 371 317C430 438 478 521 515 566C544 595 561 603 561 622ZM665 168C665 207 656 242 637 274C614 311 585 330 549 329L546 328L541 340C516 350 499 355 488 355C454 355 424 329 399 276C378 231 368 189 368 150C368 103 380 65 405 37C431 7 467-8 513-8C562-8 600 9 627 44C652 77 665 118 665 168Z"  horiz-adv-x="721" vert-adv-y="800"  />

      
      <glyph glyph-name="uni26" unicode="&#x26;" d="M336 79C321 72 299 66 269 59C239 53 216 50 199 50C145 50 118 66 118 99C118 121 126 144 142 167C149 178 165 196 190 223C237 168 286 120 336 79ZM338 553C338 522 323 486 294 443C268 405 240 375 211 353C197 364 186 384 178 413C171 436 167 459 167 482C167 513 179 541 202 566C225 592 252 605 283 605C315 605 338 584 338 553ZM642 34C642 47 632 53 613 53C601 53 574 41 563 41C544 41 522 50 498 68C582 119 624 167 624 211C624 235 596 253 541 266C501 276 463 281 427 281C386 281 365 265 365 234C365 217 377 204 400 195C418 204 434 209 449 209C492 209 514 201 514 184C514 181 500 170 472 151C445 132 428 123 422 123C413 123 384 147 336 194C290 239 262 268 253 283C305 334 342 373 363 400C403 452 423 499 423 542C423 584 409 617 380 642C353 665 318 676 275 676C216 676 169 658 133 621C97 585 79 538 79 479C79 433 100 371 141 294C101 253 77 226 67 213C40 177 25 145 25 116C25 68 44 32 82 7C115-14 156-24 206-24C266-24 336-8 415 23C459-1 503-33 555-33C572-33 591-26 611-12C632 2 642 17 642 34Z"  horiz-adv-x="697" vert-adv-y="800"  />

      
      <glyph glyph-name="uni2019" unicode="&#x2019;" d="M14 606C14 579 32 568 55 553C78 538 77 514 70 495C59 462 34 442 7 427C-8 408 6 393 27 390C54 390 90 418 117 453C144 486 153 518 153 574C153 626 121 665 82 665C46 665 14 637 14 606Z"  horiz-adv-x="157" vert-adv-y="800"  />

      
      <glyph glyph-name="uni28" unicode="&#x28;" d="M195 668C195 703 173 737 140 737C105 737 75 680 52 565C34 479 25 406 25 345C25 233 40 130 69 35C86-22 106-51 128-51C157-51 184-34 184-5C184-1 179 12 169 35C156 62 150 77 149 80C128 139 118 251 118 418C118 524 128 593 149 626C153 629 163 645 166 645C177 645 195 657 195 668Z"  horiz-adv-x="230" vert-adv-y="800"  />

      
      <glyph glyph-name="uni29" unicode="&#x29;" d="M202 329C202 397 195 466 182 535C165 624 140 686 108 721C99 724 90 725 81 725C49 725 25 699 25 666C25 661 29 656 37 650C49 641 55 637 55 636C76 614 92 557 103 464C110 401 113 334 113 265C113 168 99 100 72 61C49 37 36 30 36 15C36-8 69-30 93-30C114-30 133-9 149 32C185 121 202 220 202 329Z"  horiz-adv-x="237" vert-adv-y="800"  />

      
      <glyph glyph-name="uni2a" unicode="&#x2a;" d="M307 585C307 609 298 644 278 644L157 565L121 639C106 671 93 687 82 687C66 687 42 666 42 649C42 644 48 634 59 619C66 612 68 604 72 599C76 594 78 588 81 584L84 576C44 577 20 577 12 574C-10 568-24 553-30 530C-23 525-8 520 15 517C44 513 63 502 72 491C28 448 6 426 6 425L6 405C18 400 29 396 36 396C48 396 63 404 80 419L128 463C140 446 153 422 164 402L164 403C177 382 190 371 201 371C204 371 214 376 233 385L233 395C213 421 202 439 203 449L205 472C228 452 252 442 278 442C285 442 289 443 292 446C292 449 293 452 294 459C295 463 298 475 298 470C298 483 288 493 275 502L228 534L307 582Z"  horiz-adv-x="279" vert-adv-y="800"  />

      
      <glyph glyph-name="uni2b" unicode="&#x2b;" d="M545 358C545 369 537 379 521 388C492 381 471 378 457 378L323 378L323 435C323 446 326 463 331 484C336 506 339 523 339 534C339 544 331 553 316 562C301 571 288 575 277 575C265 575 250 570 232 561L232 378L177 378C165 378 147 379 124 382C101 385 83 386 71 386C47 386 25 361 25 336C25 325 30 311 40 294L232 294L232 156C232 115 255 94 301 94C313 94 324 101 334 116C327 143 323 163 323 176L323 294L479 294C523 294 545 315 545 358Z"  horiz-adv-x="596" vert-adv-y="800"  />

      
      <glyph glyph-name="uni2c" unicode="&#x2c;" d="M19 46C19 19 37 8 60-7C83-22 82-46 75-65C64-98 39-118 12-133C-3-152 11-167 32-170C59-170 95-142 122-107C149-74 158-42 158 14C158 66 126 105 87 105C51 105 19 77 19 46Z"  horiz-adv-x="176" vert-adv-y="800"  />

      
      <glyph glyph-name="uni2d" unicode="&#x2d;" d="M294 280C289 299 266 308 225 308C211 308 190 307 161 306C133 305 112 304 98 304C87 304 62 312 51 312C34 312 25 302 25 283C25 260 56 249 117 249C129 249 146 249 169 250C192 251 210 251 221 251C230 251 250 246 259 246C282 246 293 250 293 257C293 261 288 269 288 273C288 276 290 279 294 280Z"  horiz-adv-x="333" vert-adv-y="800"  />

      
      <glyph glyph-name="uni2e" unicode="&#x2e;" d="M170 40C170 55 159 69 137 82C118 93 99 98 81 98C52 98 18 74 18 47C18 32 26 18 43 7C60-4 75-10 90-10C103-10 120-5 140 6C160 17 170 29 170 40Z"  horiz-adv-x="191" vert-adv-y="800"  />

      
      <glyph glyph-name="uni2f" unicode="&#x2f;" d="M452 692C433 711 417 719 402 720C353 723 316 668 320 647C316 628 310 606 298 580L269 515L173 273C135 177 94 100 52 42C41 26 25 11 25-6C25-26 44-40 64-40C91-40 120-12 151 45C157 56 176 96 208 167L414 622C428 654 443 677 452 692Z"  horiz-adv-x="498" vert-adv-y="800"  />

      
      <glyph glyph-name="uni30" unicode="&#x30;" d="M491 359C491 289 477 228 450 176C416 111 367 78 304 78C244 78 197 99 163 141C132 180 117 230 117 291C117 348 129 402 152 453C178 508 214 549 260 576C281 588 301 594 320 594C380 594 424 568 454 517C478 476 491 423 491 359ZM580 354C580 430 559 500 518 563C471 635 411 671 339 671C308 671 281 668 257 661C190 643 133 594 87 514C46 442 25 369 25 294C25 209 48 138 95 81C145 20 212-11 295-11C382-11 453 29 508 110C556 181 580 262 580 354Z"  horiz-adv-x="632" vert-adv-y="800"  />

      
      <glyph glyph-name="uni31" unicode="&#x31;" d="M189 620C189 633 182 646 169 659C156 673 144 680 131 680C109 680 89 656 71 607C56 566 50 532 50 504L50 472L66 460L66 46C66 33 70 17 78 0C102-11 121-17 135-17C154-17 172-1 172 18C172 22 166 32 155 49C150 56 147 85 147 137L147 333C147 386 157 459 177 553C185 590 189 613 189 620Z"  horiz-adv-x="250" vert-adv-y="800"  />

      
      <glyph glyph-name="uni32" unicode="&#x32;" d="M547 63C547 95 527 126 496 126C492 126 488 126 485 125L157 76C164 84 173 92 183 101C285 192 348 252 372 279C443 359 478 434 478 504C478 551 460 591 423 624C387 657 346 674 299 674C261 674 225 666 191 650C152 631 116 601 83 560C46 515 28 473 28 434C28 425 35 414 49 403C64 392 76 386 86 386C106 386 120 401 128 430C132 453 135 475 141 498C148 524 169 548 201 570C234 592 264 603 291 603C340 603 381 570 381 521C381 459 347 385 277 298C225 233 163 173 95 119C71 100 56 88 50 81C33 64 25 47 25 30C25-2 52-23 84-23C90-23 103-20 124-14C229 18 334 34 439 34C448 34 460 32 476 28C493 24 505 22 513 22C532 22 547 44 547 63Z"  horiz-adv-x="598" vert-adv-y="800"  />

      
      <glyph glyph-name="uni33" unicode="&#x33;" d="M595 232C595 317 537 372 422 398C446 418 466 443 483 472C501 505 510 535 510 563C510 604 495 637 464 660C436 682 401 693 359 693C312 693 260 678 203 648C146 619 103 585 74 547C56 524 47 505 47 490C47 469 76 449 99 449C114 449 133 458 156 475C177 492 191 508 198 523C195 532 193 536 193 537L193 540C204 555 229 571 268 588C307 605 338 613 359 613C397 613 416 595 416 558C416 529 402 499 375 468C345 435 320 414 300 406C289 401 261 398 214 395C138 391 113 353 113 325C113 314 120 305 133 299C144 294 155 291 168 291C191 291 223 298 263 313C303 328 328 336 337 336C371 336 404 326 437 307C476 285 495 258 495 226C495 211 488 191 473 166C452 132 421 105 380 87C343 70 302 63 258 63C207 63 170 72 148 90C139 97 129 114 116 141C107 159 92 168 73 168C50 168 25 147 25 124C25 100 41 76 72 51C99 30 125 16 152 9C193-2 239-7 289-7C401-7 489 33 553 114C581 149 595 188 595 232Z"  horiz-adv-x="658" vert-adv-y="800"  />

      
      <glyph glyph-name="uni34" unicode="&#x34;" d="M408 250L154 230L148 229C139 229 134 232 134 238C134 259 177 306 264 379C330 434 386 478 433 509ZM661 216C642 242 603 255 545 255C523 255 507 254 497 251C497 270 503 314 514 383C530 482 538 537 542 548C542 548 545 559 553 582C557 595 561 607 561 617C561 646 532 671 501 671C478 671 457 662 440 642L394 588C301 503 229 441 180 401C149 375 117 350 87 324C45 286 25 254 25 230C25 209 41 189 73 170C102 153 127 144 150 144C180 144 223 148 280 155C337 163 380 167 407 168C407 164 404 152 404 147C404 130 401 85 401 68C401 7 414-23 439-23C448-29 457-32 468-32C479-32 490-29 501-23C511-8 516 4 516 12C516 16 513 24 507 35C498 52 491 75 490 103L488 173L596 164C632 161 647 158 640 158C655 158 662 165 662 179Z"  horiz-adv-x="702" vert-adv-y="800"  />

      
      <glyph glyph-name="uni35" unicode="&#x35;" d="M554 233C554 292 532 339 488 372C448 403 398 418 337 418C284 418 231 407 179 384C178 395 178 409 178 426C178 506 183 551 193 560C198 565 224 569 271 572C308 575 336 577 357 577C376 577 391 577 402 573L421 566C429 563 436 562 442 562L463 562C478 587 485 605 485 617C485 634 475 647 455 657C440 664 422 669 403 669C367 669 318 665 255 656C222 652 204 650 201 650C191 662 177 668 159 668C148 668 136 665 125 659C102 610 90 542 90 455C90 444 91 428 91 406L91 356C91 340 79 305 78 290C102 277 120 270 132 270C143 270 158 279 178 296C191 308 214 317 247 325C275 331 300 335 323 335C360 335 391 326 416 307C443 286 457 257 457 221C457 168 435 125 390 93C351 65 303 51 247 51C222 51 193 63 158 88C124 113 97 125 77 125C42 125 25 111 25 84C25 66 46 46 88 23C123 4 153-8 178-13C203-18 232-20 263-20C338-20 404 3 462 49C523 99 554 160 554 233Z"  horiz-adv-x="616" vert-adv-y="800"  />

      
      <glyph glyph-name="uni36" unicode="&#x36;" d="M461 242C461 188 443 142 408 104C372 64 327 44 274 44C229 44 193 61 166 94C143 123 128 161 123 209C131 230 137 245 140 255C156 288 182 317 217 341C252 365 288 377 324 377C408 377 461 326 461 242ZM551 230C551 297 530 351 487 391C444 431 389 451 321 451C270 451 214 426 155 375L155 382C155 414 178 457 230 512C281 565 322 593 355 598C362 588 372 583 383 583C403 583 419 605 419 626C419 640 411 652 395 665C380 677 365 684 351 684C326 684 289 666 239 630C176 585 126 529 87 460C46 388 25 315 25 242C25 163 47 99 91 49C138-3 200-29 277-29C352-29 417-4 470 45C524 94 551 156 551 230Z"  horiz-adv-x="612" vert-adv-y="800"  />

      
      <glyph glyph-name="uni37" unicode="&#x37;" d="M505 618C505 643 480 662 430 677C393 688 357 693 323 693C283 693 247 690 214 683C206 681 189 675 162 666C141 659 123 655 109 654C99 670 83 678 61 679C36 636 33 597 25 554L16 528C12 517 10 508 10 501C10 476 35 458 60 458C67 458 73 459 80 461C97 476 107 494 109 515C111 540 114 555 117 560C124 570 161 580 230 590C290 599 334 603 362 603C377 603 374 591 374 582L237 348C185 259 155 174 136 97C130 74 127 57 127 46C127 25 133 6 146-11C159-30 176-39 197-39C212-39 222-30 228-13C217 22 211 44 211 51C211 78 219 112 235 153C305 331 385 468 476 565C489 579 495 587 496 588C502 596 505 606 505 618Z"  horiz-adv-x="538" vert-adv-y="800"  />

      
      <glyph glyph-name="uni38" unicode="&#x38;" d="M464 168C464 129 445 100 406 80C375 65 339 57 296 57C250 57 211 64 178 79C134 99 112 129 112 169C112 202 127 231 158 256C166 263 195 281 245 312C253 311 259 309 262 308C323 291 365 277 389 265C439 239 464 207 464 168ZM433 493C418 480 389 463 347 440C301 415 271 403 258 403C237 403 213 411 187 428C158 446 144 465 144 486C144 522 160 551 193 573C222 592 255 601 293 601C330 601 359 591 380 570C389 561 407 535 433 493ZM557 180C557 269 497 333 376 372C426 397 462 417 483 434C524 466 545 499 545 533C545 560 528 582 503 582C501 582 496 580 489 576C445 639 369 678 293 678C232 678 178 661 133 627C82 590 57 542 57 483C57 432 86 386 143 347C64 299 25 240 25 169C25 105 55 56 116 23C165-4 224-17 294-17C327-17 357-15 382-10C431-1 473 21 506 55C540 90 557 131 557 180Z"  horiz-adv-x="609" vert-adv-y="800"  />

      
      <glyph glyph-name="uni39" unicode="&#x39;" d="M403 417C403 404 401 393 397 384C390 367 365 346 323 321C281 296 251 283 232 283C161 283 114 337 114 409C114 457 128 502 155 543C186 590 224 614 269 614C313 614 347 591 372 545C393 508 403 465 403 417ZM494 421C494 494 475 555 436 605C394 659 338 686 267 686C192 686 132 660 88 607C46 558 25 495 25 418C25 356 44 306 81 268C118 230 168 211 231 211C272 211 317 225 366 254C350 219 330 183 305 148C270 99 242 74 220 73C209 82 199 87 188 87C168 87 150 70 150 50C150 37 161 23 184 10C204-2 221-8 235-8C263-8 299 16 344 63C379 100 407 137 427 172C473 251 494 334 494 421Z"  horiz-adv-x="553" vert-adv-y="800"  />

      
      <glyph glyph-name="uni3a" unicode="&#x3a;" d="M165 363C165 380 156 393 138 402C123 410 106 414 88 414C49 414 30 397 30 363C30 325 50 306 89 306C126 306 165 328 165 363ZM158 43C158 80 117 106 80 106C55 106 25 77 25 52C25 37 34 22 52 9C70-4 87-11 103-11C130-11 158 16 158 43Z"  horiz-adv-x="201" vert-adv-y="800"  />

      
      <glyph glyph-name="uni3b" unicode="&#x3b;" d="M39 46C39 19 57 8 80-7C103-22 102-46 95-65C84-98 59-118 32-133C17-152 31-167 52-170C79-170 115-142 142-107C169-74 178-42 178 14C178 66 146 105 107 105C71 105 39 77 39 46ZM173 363C173 380 164 393 146 402C131 410 114 414 96 414C57 414 38 397 38 363C38 325 58 306 97 306C134 306 173 328 173 363Z"  horiz-adv-x="211" vert-adv-y="800"  />

      
      <glyph glyph-name="uni3c" unicode="&#x3c;" d="M384 202C384 209 380 220 371 236C277 284 207 320 160 343C302 414 373 456 373 469C373 494 353 513 312 525L46 369C32 361 25 351 25 338C25 330 30 322 39 313C48 305 97 277 186 230C275 183 322 159 329 159C339 159 351 164 364 173C377 183 384 193 384 202Z"  horiz-adv-x="427" vert-adv-y="800"  />

      
      <glyph glyph-name="uni3d" unicode="&#x3d;" d="M418 228C418 244 395 272 380 272C364 272 325 259 309 259C296 259 260 262 245 262C230 262 209 261 180 259C151 257 130 256 116 256C104 256 74 260 62 260C58 260 47 258 30 254C27 229 25 217 25 220C25 192 51 178 104 178C111 178 215 182 418 191ZM418 365C418 380 408 393 388 403C371 411 353 415 336 415C333 415 230 411 25 402L25 365C25 345 50 318 70 318C73 318 79 320 88 322L99 325C136 335 173 342 210 342C292 342 339 339 352 334C367 328 377 325 381 325C386 325 397 327 414 331C414 334 415 339 416 348C417 355 418 360 418 365Z"  horiz-adv-x="463" vert-adv-y="800"  />

      
      <glyph glyph-name="uni3e" unicode="&#x3e;" d="M384 344C384 353 379 361 369 369C359 378 310 405 222 452C134 499 87 523 80 523C70 523 58 518 45 508C32 499 25 489 25 480C25 474 29 463 38 446C131 398 202 362 249 339C113 272 42 230 35 213C34 210 34 207 34 203C34 179 55 153 79 153C87 153 133 176 216 226L363 314C377 322 384 332 384 344Z"  horiz-adv-x="427" vert-adv-y="800"  />

      
      <glyph glyph-name="uni3f" unicode="&#x3f;" d="M269 43C269 56 260 68 241 78C223 88 206 93 191 93C166 93 136 72 136 48C136 35 143 24 158 14C173 4 186-1 199-1C211-1 225 4 241 13C260 23 269 33 269 43ZM531 496C531 539 504 579 451 616C402 649 355 665 309 665C282 665 246 656 199 639C167 628 132 606 93 574C48 537 25 505 25 478C25 461 35 445 55 428C75 411 94 403 111 403C124 403 138 408 152 419C167 430 174 441 174 454C174 470 161 481 136 487C155 507 185 527 226 547C268 567 301 577 326 577C353 577 375 570 394 557C415 542 425 521 425 496C425 463 401 429 349 398C303 371 254 347 208 319C156 288 131 254 131 219C131 199 142 180 165 163C186 147 206 139 227 139C236 139 244 140 252 142L252 149C253 160 249 172 242 185C235 198 231 207 231 212C231 231 257 256 309 285C389 330 437 358 453 371C505 410 531 452 531 496Z"  horiz-adv-x="581" vert-adv-y="800"  />

      
      <glyph glyph-name="uni40" unicode="&#x40;" d="M582 362C566 389 493 456 441 456C372 456 294 383 278 252C265 148 290 44 396 44C474 44 546 192 549 213L501 220C495 198 457 110 414 110C361 110 347 174 366 273C381 354 424 384 461 384C499 384 514 350 506 283C503 256 531 242 562 242C589 242 592 267 592 278C592 297 596 337 582 362ZM500 247C488 203 484 186 484 154C484 98 528 44 606 44C702 44 820 119 820 321C820 497 621 662 424 662C281 662 58 525 58 233C58-46 267-168 448-168C529-168 566-160 676-108C711-91 710-42 691-6C681 13 667-6 656-14C613-43 534-82 414-82C315-82 168-53 168 200C168 497 343 580 462 580C596 580 712 466 712 335C712 235 678 96 626 96C558 96 560 176 568 205C576 234 580 245 588 257C588 261 587 264 585 267C582 272 575 277 564 277C521 277 507 270 500 247Z"  horiz-adv-x="881" vert-adv-y="800"  />

      
      <glyph glyph-name="uni41" unicode="&#x41;" d="M413 215C344 218 290 218 252 212C210 206 178 200 157 195C176 253 202 321 236 400C282 509 315 564 334 564C357 564 384 448 413 215ZM553 177C553 190 548 199 537 205C532 208 521 211 504 215C492 335 479 424 465 482C434 611 389 676 331 676C272 676 194 555 108 309C75 215 58 143 43 96C33 62 25 45 25 40C25 27 32 14 47 2C62-9 76-15 90-15C103-15 114-9 123 4C125 68 129 104 135 111C142 118 182 124 255 128C306 131 351 133 388 133C410 133 421 135 421 140C421 129 419 101 419 89C419 65 423 44 432 27C448 20 462 16 474 16C505 16 531 37 532 66C521 92 513 113 510 128C539 129 553 145 553 177Z"  horiz-adv-x="604" vert-adv-y="800"  />

      
      <glyph glyph-name="uni42" unicode="&#x42;" d="M429 192C429 159 407 132 364 109C327 89 290 79 254 79C215 79 179 86 146 99C145 109 145 121 145 135L145 197C145 212 145 228 146 245C160 246 178 247 200 247C261 247 305 246 332 243C397 235 429 218 429 192ZM408 490C408 423 390 377 353 351C323 330 273 320 203 320L149 320L149 384C149 429 166 477 200 528C237 585 276 613 319 613C378 613 408 572 408 490ZM520 186C520 243 487 282 422 303C445 324 464 352 478 387C492 420 499 453 499 486C499 543 484 590 455 627C423 668 379 688 323 688C252 688 194 657 148 595L156 640L136 662C131 666 121 668 106 668C85 668 55 640 55 619L55 313C42 304 36 293 36 280C36 269 43 259 57 250L57 243C57 228 57 208 56 183C55 156 55 137 55 124L55 122C35 119 25 108 25 87C25 63 45 57 62 49C64 48 65 44 65 38L65 24C65-3 81-16 113-16C130-16 143-6 150 15C190 6 225 2 256 2C373 2 456 43 504 125C515 144 520 164 520 186Z"  horiz-adv-x="569" vert-adv-y="800"  />

      
      <glyph glyph-name="uni43" unicode="&#x43;" d="M513 164C513 184 494 204 473 204C457 204 443 191 428 165C408 129 392 105 381 94C355 69 320 56 275 56C171 56 119 125 119 264C119 359 135 439 168 503C181 528 198 551 217 572C242 599 266 613 287 613C318 613 340 591 353 548C362 519 366 484 366 443C366 400 359 372 346 357C334 346 325 339 318 334C330 305 348 290 371 290C392 290 410 315 427 366C441 407 448 442 448 469C448 530 436 580 412 620C383 669 340 694 283 694C244 694 205 678 167 647C119 607 83 552 58 481C36 419 25 353 25 282C25 197 44 127 82 73C126 11 189-20 271-20C321-20 367-9 409 14C455 39 486 74 503 118C510 136 513 151 513 164Z"  horiz-adv-x="562" vert-adv-y="800"  />

      
      <glyph glyph-name="uni44" unicode="&#x44;" d="M408 419C408 366 403 316 392 269C380 216 358 169 326 128C287 79 244 55 197 55C144 55 118 86 118 149L118 364C118 447 135 514 191 573C223 606 255 623 288 623C368 623 408 555 408 419ZM507 415C507 494 491 559 455 610C415 667 356 696 280 696C217 696 169 671 135 621C142 653 109 681 76 681C52 681 32 665 32 641C32 637 34 629 34 626C34 573 32 493 29 386C26 279 25 199 25 146C25 84 32 34 45-3C56-12 65-16 73-16C86-16 100-10 114 3C139-11 169-18 204-18C301-18 378 32 435 132C483 216 507 310 507 415Z"  horiz-adv-x="556" vert-adv-y="800"  />

      
      <glyph glyph-name="uni45" unicode="&#x45;" d="M489 75C476 98 446 110 401 110C372 110 334 102 285 86C236 71 199 63 174 63C144 63 126 82 119 121C117 131 116 162 116 213C116 220 117 230 118 242C121 257 127 255 135 256C163 261 191 268 218 273C251 280 279 282 302 282C311 282 319 280 324 277L356 281C366 282 371 291 371 308C371 313 368 326 361 347C336 359 313 365 294 365C277 365 252 361 219 352C186 343 161 339 144 339C131 339 125 346 125 360C125 453 129 516 136 548C140 565 150 565 161 566C254 590 328 602 382 602C390 602 411 599 419 599C452 599 468 611 468 636C468 653 458 666 438 675C423 682 406 685 387 685C354 685 303 679 236 666C185 656 133 646 82 637C49 632 32 614 32 583C32 575 36 552 36 543C36 542 36 537 35 527C28 452 25 351 25 223C25 60 79-21 186-21C215-21 256-12 310 5C365 22 406 31 435 31C440 31 453 28 458 28C468 28 476 34 482 45C487 54 489 64 489 75Z"  horiz-adv-x="538" vert-adv-y="800"  />

      
      <glyph glyph-name="uni46" unicode="&#x46;" d="M468 626C468 643 458 655 439 664C424 671 406 674 387 674C346 674 273 665 168 647C141 668 122 678 109 678C86 678 75 667 75 644C75 641 75 636 76 630C57 625 46 621 44 620C31 615 25 607 25 596C25 577 42 550 58 550C61 550 68 552 71 552C76 552 78 537 78 508C78 468 74 408 66 329C59 250 55 190 55 150C55 77 62 28 76 3C83-11 99-18 122-18C141-18 169 4 169 23C169 28 164 37 154 52C149 59 146 101 146 179C146 204 148 235 152 242C154 246 160 250 171 252C192 257 220 258 255 258L292 258C308 258 320 257 329 257C337 257 356 251 364 251C385 251 395 265 395 293C374 322 340 337 293 337C272 337 235 338 181 330L174 329C163 327 158 339 158 360C158 386 160 419 166 458L180 555C193 557 227 565 281 578C322 588 356 593 383 593C391 593 412 590 420 590C452 590 468 602 468 626Z"  horiz-adv-x="500" vert-adv-y="800"  />

      
      <glyph glyph-name="uni47" unicode="&#x47;" d="M502 202C502 269 475 303 420 303C401 303 367 300 319 294C266 287 235 280 225 275C210 266 202 254 202 239C202 204 222 171 255 171C261 171 269 173 280 178C288 183 296 187 304 191C330 202 367 208 414 208L418 205C417 184 412 166 405 152C392 129 375 107 351 89C325 68 299 59 275 59C266 59 254 61 239 65C190 79 158 109 142 154C132 182 127 227 127 290C127 327 131 367 139 410C147 451 164 490 189 527C220 572 253 594 289 594C324 594 348 584 360 565C369 551 374 525 374 487C374 480 370 470 363 457C356 444 353 435 353 428C353 404 377 386 401 386C441 386 461 430 461 518C461 517 458 532 451 563C443 601 422 631 388 653C357 672 321 682 280 682C197 682 131 636 84 545C45 470 25 387 25 295C25 204 41 132 74 78C115 12 177-21 262-21C321-21 375 2 426 47C477 92 502 144 502 202Z"  horiz-adv-x="551" vert-adv-y="800"  />

      
      <glyph glyph-name="uni48" unicode="&#x48;" d="M580 616C580 657 550 694 509 694C474 694 451 646 440 550C437 521 434 458 432 360C363 360 289 352 210 336C185 331 169 329 163 328L163 351C163 428 172 495 190 551L202 579C207 591 210 601 210 609C210 640 176 663 144 663C118 663 100 650 89 624C76 592 70 517 70 400C70 389 69 373 67 354L63 307C47 302 25 298 25 282C25 254 41 224 66 219C74 90 82 20 91 11C105-4 124-12 149-12C176-12 189-3 189 14C189 17 188 21 186 24C171 40 163 73 163 124C163 187 162 223 159 232L296 258C349 268 395 274 434 275C437 258 439 235 439 208L439 167C439 146 439 129 441 114L450 44C458 17 475 4 500 4C527 4 550 30 550 57C550 62 547 73 542 90C535 110 530 140 529 181L527 276L557 282C570 285 576 291 576 299C576 320 554 349 534 349C531 349 529 349 527 348L526 387C524 483 533 547 550 580C551 583 557 589 566 596C575 603 580 610 580 616Z"  horiz-adv-x="632" vert-adv-y="800"  />

      
      <glyph glyph-name="uni49" unicode="&#x49;" d="M169 623C169 634 162 645 148 655C134 665 121 670 109 670C94 670 78 663 62 649C46 635 38 620 38 605C38 577 37 535 36 480C35 425 35 384 35 357C35 241 40 150 49 84C56 30 77 2 111 2L120 2C153 2 169 9 169 23C169 26 169 28 168 29C153 56 144 77 139 92C134 110 131 134 131 163C131 276 137 407 152 556C154 581 157 596 160 601C166 612 169 620 169 623Z"  horiz-adv-x="203" vert-adv-y="800"  />

      
      <glyph glyph-name="uni4a" unicode="&#x4a;" d="M499 619C499 648 463 669 432 669C420 669 393 661 382 660C363 671 351 677 344 677C321 677 306 664 299 639L200 609C154 595 131 575 131 553C131 526 150 499 177 499C184 499 202 507 233 523C267 540 288 550 296 552C301 448 304 380 304 348C304 166 270 75 202 75C183 75 165 85 147 105C130 125 121 144 121 163C121 176 123 212 123 227C123 250 118 270 108 287C97 308 80 318 58 318C44 318 32 305 22 279C14 258 10 238 10 221C10 169 30 118 69 68C111 15 157-12 208-12C335-12 398 156 398 491C398 501 397 516 396 535C395 554 395 569 395 578C395 585 399 588 408 588C420 588 447 584 459 584C486 584 499 596 499 619Z"  horiz-adv-x="547" vert-adv-y="800"  />

      
      <glyph glyph-name="uni4b" unicode="&#x4b;" d="M575 80C575 101 563 112 538 112C521 112 488 95 479 95C444 95 403 133 356 210C311 282 289 337 289 376C289 394 313 432 362 491C411 550 444 580 460 582L463 579C472 575 479 573 484 573C501 573 516 588 516 605C516 614 512 625 503 637L482 666C473 670 464 672 457 672C411 672 298 549 119 303C120 339 123 391 127 459C133 546 138 593 143 598C152 603 168 607 168 627C168 642 158 655 138 668C118 681 100 687 84 687C59 687 43 673 38 645C29 598 25 513 25 392C25 180 32 56 47 21C62-14 81-31 103-31C118-31 132-23 147-6L144 22C129 48 121 92 121 153C121 176 149 220 205 285C299 112 392 25 485 25C505 25 524 29 542 37C564 48 575 62 575 80Z"  horiz-adv-x="601" vert-adv-y="800"  />

      
      <glyph glyph-name="uni4c" unicode="&#x4c;" d="M414 26C414 46 410 63 402 76C392 93 378 101 359 101C339 101 310 94 273 80C236 67 207 60 187 60C142 60 120 99 120 178C120 223 124 290 133 379C142 468 146 536 146 581C146 602 142 622 134 641C124 665 110 677 91 677C72 677 55 669 42 653C41 643 40 634 40 626C40 618 41 606 42 590C43 574 44 562 44 555C44 516 41 457 34 380C28 303 25 244 25 205C25 138 35 87 54 53C79 9 123-13 186-13C266-13 342 0 414 26Z"  horiz-adv-x="459" vert-adv-y="800"  />

      
      <glyph glyph-name="uni4d" unicode="&#x4d;" d="M644 647C644 660 630 671 603 680C580 687 561 691 545 691C500 691 469 673 457 634C441 584 434 543 428 516L392 342C377 269 360 213 343 173C334 152 327 142 322 142C298 142 270 204 237 329C212 426 197 503 190 562C185 604 182 635 180 656C159 675 140 685 125 685C58 685 25 666 25 629C25 618 41 606 41 595C41 548 38 478 33 384C28 290 25 219 25 172C25 55 47-3 90-3C127-3 145 8 145 30C145 40 141 54 134 71C127 89 124 102 123 110C118 154 115 225 115 323C115 370 117 417 121 462C162 309 196 201 224 136C254 65 289 29 328 29C363 29 404 89 436 211L497 446C492 379 489 295 489 194C489 148 495 104 508 62C525 3 551-27 585-27C602-27 614-19 622-2L622 25C595 34 582 76 582 151C582 284 590 418 607 554C611 582 615 599 619 606L635 624C641 630 644 638 644 647Z"  horiz-adv-x="699" vert-adv-y="800"  />

      
      <glyph glyph-name="uni4e" unicode="&#x4e;" d="M506 655C506 658 506 661 505 664C488 676 475 682 466 682C437 682 413 654 396 599C384 560 377 520 375 479L365 208C365 195 370 165 370 154C370 135 366 126 359 126C339 126 309 188 268 311C234 416 211 492 205 539L199 588C196 611 192 627 188 634C173 656 149 667 115 667C100 667 86 663 71 656C53 647 44 636 44 623C44 620 47 614 47 611L47 489C47 462 44 421 37 367C30 313 27 272 27 245C27 234 27 217 26 194C25 172 25 155 25 144C25 119 30 91 39 60C51 21 66 1 85 1C112 1 145 24 145 49C145 55 140 64 129 77C119 90 114 139 114 224C114 263 121 339 135 452C151 400 166 348 182 296C208 216 235 153 261 108C297 47 333 16 370 16C395 16 415 35 432 74C445 105 452 135 452 164L455 451C455 490 465 539 484 600L497 627C502 638 506 648 506 655Z"  horiz-adv-x="555" vert-adv-y="800"  />

      
      <glyph glyph-name="uni4f" unicode="&#x4f;" d="M481 348C481 273 468 209 441 157C406 91 355 58 287 58C237 58 199 71 173 98C150 121 133 158 122 209C117 232 114 249 114 262C114 401 144 497 203 551C240 584 278 601 315 601C327 601 338 600 347 597C436 570 481 487 481 348ZM577 339C577 426 556 503 514 569C465 646 400 684 318 684C225 684 151 640 96 551C49 476 25 389 25 290C25 214 37 153 62 108C91 55 138 18 205-3C235-13 263-18 289-18C381-18 453 20 506 95C553 162 577 243 577 339Z"  horiz-adv-x="629" vert-adv-y="800"  />

      
      <glyph glyph-name="uni50" unicode="&#x50;" d="M417 430C417 431 416 425 414 412C402 349 389 305 376 281C353 238 316 216 266 216C173 216 126 262 126 355C126 410 142 465 175 520C212 583 256 614 307 614C347 614 377 592 396 548C410 515 417 476 417 430ZM507 414C507 419 507 426 506 435L506 456C506 521 490 575 457 618C420 665 370 689 307 689C240 689 184 660 140 602C141 607 141 611 141 616C141 653 118 683 82 683C67 683 50 675 33 659C40 624 43 606 43 605L43 515C43 496 41 467 38 428C35 389 34 360 34 340L34 272C34 260 32 243 29 220C26 197 25 180 25 169C25 140 26 114 27 91C29 56 33 33 39 20C50-1 70-12 100-12C127-12 151 11 151 38C151 41 145 55 132 78C123 95 120 125 120 170L120 191C169 160 224 144 285 144C405 144 478 221 504 375C506 386 507 399 507 414Z"  horiz-adv-x="556" vert-adv-y="800"  />

      
      <glyph glyph-name="uni51" unicode="&#x51;" d="M484 344C484 243 461 166 414 115C351 170 309 197 288 197C274 197 262 193 251 186C238 177 232 166 232 153C232 138 246 122 274 104L335 66C320 62 306 60 294 60C231 60 184 83 153 130C127 170 114 223 114 289C114 321 115 350 119 375C126 427 149 476 185 521C226 572 271 597 320 597C377 597 421 567 450 508C473 462 484 407 484 344ZM576 343C576 430 554 506 511 573C461 649 395 687 313 687C220 687 146 644 93 558C48 485 25 398 25 299C25 206 46 133 88 79C134 20 202-10 293-10C315-10 332-8 344-5C346-5 354-2 369 3C384 8 392 11 395 11C400 11 416-13 442-61C468-109 489-133 506-133C529-133 544-119 550-91C537-54 509-6 467 51C540 118 576 215 576 343Z"  horiz-adv-x="628" vert-adv-y="800"  />

      
      <glyph glyph-name="uni52" unicode="&#x52;" d="M448 465C448 423 432 386 399 355C371 328 335 307 291 294C276 289 264 287 256 287C247 287 223 294 184 307C187 375 192 427 199 462C212 521 219 562 218 586C241 588 255 589 261 589C308 589 348 580 383 562C426 540 448 508 448 465ZM585 17C585 66 562 115 505 151L364 241C423 272 465 299 488 324C523 360 540 406 540 461C540 533 506 588 439 626C384 657 318 673 240 673C223 673 215 675 215 678C215 689 209 694 197 694C164 694 156 689 129 665L95 655C79 650 71 637 71 616C71 592 84 581 111 581L119 581C113 538 107 506 104 485C101 469 101 441 99 400C98 364 95 336 92 315C47 304 25 287 25 262C25 250 34 239 51 228C66 219 81 215 95 215C95 99 102 33 115 17C129-1 149-10 174-10C198-10 220 7 220 31C220 35 214 45 202 61C198 67 194 83 191 110C188 132 186 150 186 163L186 202C189 202 196 202 205 203L223 203C250 203 304 176 386 122C469 68 513 29 519 5C527-5 537-10 548-10C563-10 575-3 585 12Z"  horiz-adv-x="637" vert-adv-y="800"  />

      
      <glyph glyph-name="uni53" unicode="&#x53;" d="M474 98C474 135 447 176 389 215L230 321C170 361 144 413 144 461C144 495 155 526 178 554C201 583 229 597 262 597C322 597 352 552 352 462C352 445 340 402 340 385C340 361 367 334 391 334C412 334 428 345 438 368C446 385 450 405 450 429C450 434 449 442 446 453C440 490 436 517 434 536C415 633 343 690 244 690C187 690 139 665 100 614C64 568 46 516 46 457C46 410 60 369 87 333C108 306 140 276 186 246L292 178C345 144 368 113 368 92C368 67 341 55 287 55C226 55 184 62 161 75L119 111C103 125 87 133 69 133C45 133 25 113 25 89C25 57 60 29 130 5C187-14 236-23 278-23C324-23 366-14 403 4C450 26 474 57 474 98Z"  horiz-adv-x="506" vert-adv-y="800"  />

      
      <glyph glyph-name="uni54" unicode="&#x54;" d="M491 608C491 631 474 649 439 660C415 668 387 672 355 672C310 672 250 668 177 660C82 649 30 637 20 622C13 620 10 613 10 602C10 575 33 561 79 561C93 561 111 563 133 566L187 573L188 544C189 515 185 476 180 429C173 368 170 330 169 314C166 277 165 226 165 160C165 103 168 65 174 45C187 4 214-17 257-17C264-17 274-14 287-7L287 20C269 49 260 102 260 179C260 293 264 395 279 486L291 561C295 584 291 583 311 583L380 583C391 583 404 579 420 574C437 568 448 566 454 566C475 566 491 585 491 608Z"  horiz-adv-x="523" vert-adv-y="800"  />

      
      <glyph glyph-name="uni55" unicode="&#x55;" d="M450 644C450 668 413 690 388 690C364 690 343 662 343 638C343 633 345 627 349 619C362 592 369 556 369 512C369 391 364 302 354 245C332 122 288 61 221 61C186 61 160 80 142 117C127 146 120 180 120 218L120 342C120 369 123 410 130 464C137 518 140 558 140 585C140 593 143 604 150 618C157 632 160 643 160 650C160 664 149 671 126 671C106 671 86 667 65 658C38 647 25 634 25 617C25 606 37 581 37 570C37 539 35 493 31 431C27 370 25 324 25 293C25 230 30 180 40 143C54 90 80 49 117 18C151-9 191-23 236-23C287-23 329-5 364 32C392 61 414 114 430 191C443 253 450 312 450 367Z"  horiz-adv-x="502" vert-adv-y="800"  />

      
      <glyph glyph-name="uni56" unicode="&#x56;" d="M499 630C499 645 494 662 483 681C472 700 460 710 446 710C438 710 426 704 409 692C392 680 384 670 384 663C384 662 389 657 398 649C408 642 413 630 413 615C413 548 401 464 376 361C351 254 322 174 291 121C279 100 267 90 254 90C235 90 210 161 179 304C162 381 154 446 154 501C154 513 155 531 156 556C158 581 159 599 159 611C159 644 127 673 94 673C79 673 65 668 50 658C33 647 25 635 25 622C25 610 32 603 39 596C44 583 47 572 48 565L99 261C124 110 164 25 205 3C224-7 250-12 283-12C316-12 356 49 402 172C437 266 461 345 473 410C491 502 499 575 499 630Z"  horiz-adv-x="547" vert-adv-y="800"  />

      
      <glyph glyph-name="uni57" unicode="&#x57;" d="M614 455C614 490 608 536 596 591C580 662 562 697 541 697C526 697 514 689 505 672C498 659 494 644 494 628C494 617 499 601 510 580C522 555 529 536 532 523C535 510 537 491 537 465C537 403 531 335 518 261C499 154 473 101 439 101C404 101 386 195 386 382C386 434 393 470 406 489C402 529 364 561 324 561C314 561 303 556 290 546C277 537 271 527 271 518C271 455 259 365 235 248C215 149 198 99 184 99C145 99 125 227 125 482C125 537 129 574 138 591C147 608 160 627 160 643C160 661 140 670 101 670C57 670 35 644 35 593C35 497 40 397 50 294C64 143 85 53 113 24C134 2 158-9 184-9C219-9 249 25 274 94C283 119 296 170 312 245C318 180 327 130 339 97C360 38 394 8 441 8C494 8 539 71 574 197C601 293 614 379 614 455Z"  horiz-adv-x="679" vert-adv-y="800"  />

      
      <glyph glyph-name="uni58" unicode="&#x58;" d="M563 58C563 79 555 89 539 89C532 89 516 86 508 86C493 86 458 125 404 204C366 259 334 309 309 353L496 638C493 666 475 691 448 691C422 691 398 669 375 625C348 573 310 510 259 437C250 450 235 481 216 529C197 577 180 611 165 631C142 663 115 679 84 679C52 679 29 659 29 628C29 609 58 560 117 480C176 400 205 357 205 351C205 346 179 305 126 226C74 148 43 104 33 93C1 58-15 32-15 16C-15-6 10-17 60-17C80-17 96-9 106 11L143 85L230 232L254 274C369 99 452 11 504 11C533 11 563 30 563 58Z"  horiz-adv-x="530" vert-adv-y="800"  />

      
      <glyph glyph-name="uni59" unicode="&#x59;" d="M512 621C508 649 481 669 452 669C432 669 407 644 377 594C359 563 334 513 302 442C273 378 254 340 245 327C223 336 198 373 171 436C145 496 132 540 132 568C132 579 137 603 137 612C137 658 117 681 77 681C42 681 25 662 25 623C25 577 52 498 105 385C136 319 171 270 211 238L179 146C165 105 151 77 139 61C127 45 121 32 121 21C121 4 129-10 144-21C157-31 173-36 191-36C212-36 253 47 316 213C390 408 430 511 436 522C443 533 455 549 473 570C492 591 505 608 512 621Z"  horiz-adv-x="535" vert-adv-y="800"  />

      
      <glyph glyph-name="uni5a" unicode="&#x5a;" d="M596 605C596 636 571 679 546 699C523 717 494 726 459 726C356 726 229 691 79 621C62 613 53 608 50 606C41 599 37 590 37 578C37 534 52 512 82 512C89 512 106 520 133 536L185 568C222 591 269 607 322 621C376 636 425 643 468 643C493 643 505 636 505 622C505 589 465 537 381 469L149 281C62 210 25 142 25 93C25 48 41 19 74 4C95-5 131-10 182-10C218-10 264-7 321-2L459 10L465 10C476 10 500 0 509 0C527 0 541 10 552 29C548 48 533 64 507 77C485 88 463 93 441 93C410 93 365 89 304 82C244 75 199 71 168 71C137 71 122 78 122 91C122 124 162 179 245 248L473 438C557 508 596 566 596 605Z"  horiz-adv-x="634" vert-adv-y="800"  />

      
      <glyph glyph-name="uni5b" unicode="&#x5b;" d="M230-53C230-41 227-35 221-35C205-35 170-45 155-45C145-45 138-38 136-25C126 26 122 110 122 225L122 440C122 501 127 551 138 590C142 604 154 611 173 611C196 611 210 612 214 615C219 618 221 631 221 654C221 675 216 686 206 686L103 686C99 686 87 690 82 690C70 690 58 686 46 679C32 670 25 660 25 648C25 637 37 611 37 599C37 536 36 442 35 317C34 192 33 98 33 35C33-72 54-126 97-126L104-126C107-127 110-127 112-127C111-127 145-123 214-114C225-95 230-74 230-53Z"  horiz-adv-x="266" vert-adv-y="800"  />

      
      <glyph glyph-name="uni5c" unicode="&#x5c;" d="M428 18C428 35 412 50 401 66C361 122 321 195 284 285L190 515C175 552 164 579 161 594L150 647C138 671 104 690 76 690C56 690 25 674 25 657C25 652 31 641 42 625C55 607 62 596 64 592L251 167C274 115 292 78 305 57C334 8 363-16 390-16C410-16 428-2 428 18Z"  horiz-adv-x="474" vert-adv-y="800"  />

      
      <glyph glyph-name="uni5d" unicode="&#x5d;" d="M230 648C230 672 197 690 172 690C168 690 156 686 151 686L49 686C39 686 34 675 34 654C34 625 39 610 49 610L65 610C72 611 78 611 82 611C107 611 122 589 129 544C132 528 133 495 133 446L133 216C133 107 129 26 119-25C117-38 110-45 100-45C85-45 49-35 34-35C28-35 25-41 25-53C25-74 30-95 41-114C110-123 144-127 143-127C144-127 147-127 150-126L158-126C201-126 222-72 222 35C222 98 221 192 220 317C219 442 218 536 218 599C218 611 230 637 230 648Z"  horiz-adv-x="266" vert-adv-y="800"  />

      
      <glyph glyph-name="uni5e" unicode="&#x5e;" d="M313 742C313 745 312 749 310 754C229 809 182 837 169 837C156 837 132 825 95 800C63 779 40 761 26 748C25 744 25 742 25 742C25 734 48 712 57 712C71 712 96 723 133 746L169 761C177 758 183 757 187 756C195 753 210 745 233 730C252 718 268 712 281 712C290 712 313 734 313 742Z"  horiz-adv-x="353" vert-adv-y="800"  />

      
      <glyph glyph-name="uni5f" unicode="&#x5f;" d="M469-94L-5-94L-5-129L469-129Z"  horiz-adv-x="461" vert-adv-y="800"  />

      
      <glyph glyph-name="uni2018" unicode="&#x2018;" d="M146 449C146 476 128 487 105 502C82 517 83 541 90 560C101 593 126 613 153 628C168 647 154 662 133 665C106 665 70 637 43 602C16 569 7 537 7 481C7 429 39 390 78 390C114 390 146 418 146 449Z"  horiz-adv-x="151" vert-adv-y="800"  />

      
      <glyph glyph-name="uni61" unicode="&#x61;" d="M283 134C283 113 271 97 247 82C227 70 206 63 183 63C146 63 128 74 128 95C128 134 170 154 253 154C273 154 283 147 283 134ZM384 170C384 340 321 425 196 425C159 425 127 413 100 389C73 365 60 334 60 297C60 274 91 249 114 249C133 249 142 257 142 274C142 323 168 348 221 348C263 348 283 313 283 243L283 219L198 219C164 219 128 207 89 182C46 155 25 125 25 94C25 62 44 36 81 15C112-2 145-11 180-11C216-11 251-3 284 13C280-24 297-43 334-43C359-43 373-33 376-12C381 23 384 84 384 170Z"  horiz-adv-x="428" vert-adv-y="800"  />

      
      <glyph glyph-name="uni62" unicode="&#x62;" d="M269 234C269 121 245 64 196 64C145 64 120 106 120 190C120 229 126 266 139 301C156 347 180 370 212 370C250 370 269 325 269 234ZM362 227C362 265 359 295 354 318C345 355 326 387 297 413C268 440 235 453 198 453C167 453 142 441 123 418C124 439 128 477 134 532C140 580 142 618 142 647C142 660 136 673 126 687C115 702 105 709 93 709C90 709 86 708 83 707C68 710 56 703 45 686L30 121L30 117C30 100 32 77 35 48C38 13 43-8 48-14C59-27 74-34 92-34C117-34 129-23 129-1C129 3 129 7 128 12C165-1 193-7 210-7C264-7 304 20 331 74C352 116 362 167 362 227Z"  horiz-adv-x="410" vert-adv-y="800"  />

      
      <glyph glyph-name="uni63" unicode="&#x63;" d="M369 113C369 133 346 163 326 163C311 163 298 152 287 131C278 113 263 95 242 78C219 59 198 50 180 50C135 50 112 86 112 157C112 200 119 242 132 284C150 341 175 369 208 369C223 369 232 359 236 338C238 331 239 315 239 290C239 260 237 242 234 235C228 220 225 213 225 212C225 201 231 192 243 185C253 178 264 175 275 175C291 175 304 192 315 225C324 251 328 274 328 295C328 318 325 338 320 356C314 377 293 397 257 418C223 437 194 446 170 446C127 446 89 408 56 332C29 269 15 211 15 160C15 55 78-19 183-19C223-19 266-12 322 40C353 68 369 92 369 113Z"  horiz-adv-x="401" vert-adv-y="800"  />

      
      <glyph glyph-name="uni64" unicode="&#x64;" d="M256 269C256 220 250 177 239 140C222 85 195 57 158 57C122 57 104 88 104 150C104 191 110 233 122 276C138 335 161 365 191 365C212 365 228 354 241 331C251 312 256 292 256 269ZM372 608C372 651 336 672 293 672C275 672 266 666 266 654C266 525 264 445 261 414C230 440 200 453 171 453C122 453 82 415 51 338C27 277 15 218 15 159C15 109 27 69 52 38C79 4 116-13 165-13C198-13 230 1 261 30C264-1 291-28 322-28C337-28 350-19 361 0C347 32 340 80 340 144C340 155 342 211 346 312C351 413 354 474 356 495C357 501 361 520 366 551C370 574 372 593 372 608Z"  horiz-adv-x="404" vert-adv-y="800"  />

      
      <glyph glyph-name="uni65" unicode="&#x65;" d="M239 277C239 236 215 216 166 216C139 216 120 234 120 259C120 282 125 301 135 318C147 337 164 347 186 347C218 347 239 310 239 277ZM348 88C348 104 334 112 305 112C297 112 279 104 250 87C222 70 193 62 164 62C129 62 111 94 108 157C129 146 144 140 153 140C201 140 242 152 277 175C316 201 336 236 336 280C336 315 315 349 272 382C230 415 191 431 154 431C113 431 79 395 50 323C27 264 15 211 15 163C15 46 66-12 169-12C208-12 245-5 280 10C325 29 348 55 348 88Z"  horiz-adv-x="380" vert-adv-y="800"  />

      
      <glyph glyph-name="uni66" unicode="&#x66;" d="M360 598C360 626 349 649 328 664C309 678 284 684 254 684C194 684 149 651 119 584C97 533 86 474 86 405C86 371 85 351 83 344C58 344 40 343 31 340C14 334 5 321 5 300C5 276 25 260 48 260C47 260 57 261 79 263C76 147 75 83 75 71C75 52 80 32 87 13C97-12 109-24 125-24C137-24 156-17 182-2C171 35 166 72 166 107L166 198C166 224 167 248 169 270C172 271 177 271 182 271C213 271 235 274 248 281L257 319C245 341 225 352 197 352C194 352 190 352 184 351L172 351C173 405 176 453 183 494C196 566 216 602 245 602C274 602 281 598 282 571C292 563 301 559 310 559C333 559 360 575 360 598Z"  horiz-adv-x="320" vert-adv-y="800"  />

      
      <glyph glyph-name="uni67" unicode="&#x67;" d="M269 237C269 198 262 158 247 118C228 66 203 40 171 40C137 40 120 73 120 138C120 173 125 214 136 261C151 323 169 354 191 354C230 354 251 323 255 262C264 255 269 247 269 237ZM370 297C366 300 357 305 343 312C332 317 323 323 318 330L262 403C237 429 210 442 182 442C136 442 97 400 65 317C39 249 26 187 26 130C26 83 36 47 57 23C78-2 127-24 160-24C200-24 234-12 263 13C265-2 266-21 266-43C266-118 236-156 176-156C169-156 156-154 137-150C118-147 107-144 104-141C101-138 96-130 87-117C82-110 74-106 61-106C34-106 20-121 20-150C20-173 46-193 98-212C141-228 178-236 207-236C263-236 322-202 341-151C349-131 353-100 353-59C353-39 352-9 350 31C348 71 347 101 347 121C347 143 350 172 357 209C364 251 369 280 370 297Z"  horiz-adv-x="407" vert-adv-y="800"  />

      
      <glyph glyph-name="uni68" unicode="&#x68;" d="M342 207C342 256 336 295 325 323C310 360 282 387 243 404C212 417 184 423 158 423C148 423 136 419 121 410C120 451 119 480 119 499C119 514 122 535 128 564C135 593 138 614 138 629C138 641 130 653 113 664C96 676 82 682 69 682C42 682 29 670 29 646C29 643 31 635 31 631L25 53C25 20 52-13 85-13C102-13 129 4 129 21C129 31 127 46 124 66C121 87 119 102 119 112L119 141C119 154 118 163 118 170C118 289 140 349 185 349C228 349 250 275 250 127C250 95 250 50 249-9C264-26 278-35 292-35C313-35 329-29 342-16Z"  horiz-adv-x="373" vert-adv-y="800"  />

      
      <glyph glyph-name="uni69" unicode="&#x69;" d="M132 385C132 399 121 409 100 417C83 423 67 427 50 427C31 427 22 421 22 409C22 406 22 402 23 399C18 354 15 299 15 233C15 194 18 135 25 57C29 15 52-6 94-6C106-6 117 2 127 17C120 44 116 64 116 77L116 283C116 295 119 312 124 334C129 356 132 373 132 385ZM141 525C141 561 108 587 72 587C41 587 18 566 18 537C18 502 54 475 89 475C118 475 141 496 141 525Z"  horiz-adv-x="163" vert-adv-y="800"  />

      
      <glyph glyph-name="uni6a" unicode="&#x6a;" d="M188 384C172 400 156 408 141 408C132 408 117 405 94 399L78 380C83 99 85-43 85-46C85-148 57-199 1-199C-38-199-72-182-100-149C-108-146-116-144-123-144C-150-144-164-156-164-180C-164-201-138-223-86-248C-39-271-3-283 22-283C69-283 106-263 134-224C159-189 172-147 172-98C172-55 171 10 169 96C167 183 166 247 166 290C166 312 173 343 188 384ZM191 476C191 512 156 539 119 539C86 539 69 523 69 491C69 484 70 477 71 470C78 462 87 453 99 443C114 431 125 425 132 425C161 425 191 447 191 476Z"  horiz-adv-x="216" vert-adv-y="800"  />

      
      <glyph glyph-name="uni6b" unicode="&#x6b;" d="M411 1C376 16 339 45 299 87C290 96 269 120 235 159C199 200 181 221 181 222C181 237 210 266 267 311C312 347 349 373 378 390L378 400C378 443 362 465 327 465C317 465 283 438 226 385L118 286C120 453 121 542 121 553C121 620 133 650 133 655C133 674 103 692 83 692C70 692 56 687 43 678C28 668 20 657 20 644C20 638 21 629 24 618C30 593 33 561 33 520L33 251C33 235 26 194 26 178L26 46C26 11 51-14 86-14C106-14 130 2 130 21C130 33 117 58 117 69L117 157L120 159C152 128 175 103 190 86C215 57 241 29 267 1C304-39 332-59 351-59C366-59 386-50 411-31Z"  horiz-adv-x="419" vert-adv-y="800"  />

      
      <glyph glyph-name="uni6c" unicode="&#x6c;" d="M134 27C134 32 132 40 129 49C117 82 108 141 108 225L108 411C108 487 112 546 121 587C122 588 124 597 129 613C132 623 134 632 134 639C134 668 101 690 72 690C59 690 42 683 20 668C20 653 26 615 26 599C26 549 25 474 24 374C23 274 23 199 23 149C23 39 44-16 86-16C111-16 134 3 134 27Z"  horiz-adv-x="161" vert-adv-y="800"  />

      
      <glyph glyph-name="uni6d" unicode="&#x6d;" d="M524 181C524 289 502 365 458 410C433 436 408 449 383 449C358 449 338 439 321 420C311 409 300 388 287 358C263 409 232 434 194 434C163 434 138 418 119 386C122 413 96 437 69 437C58 437 47 421 37 389C29 362 25 341 25 325L25 107C25 98 27 81 31 56C36 29 40 14 43 9C52-2 65-7 80-7C107-7 125 12 125 39C125 49 124 64 121 84C118 105 117 120 117 131C117 204 141 273 188 337C197 350 202 356 205 356C222 356 230 318 230 243L230 57C230 36 258 7 281 7C302 7 331 27 331 48C331 57 322 80 322 89L322 181C322 214 327 251 337 290C350 344 368 371 390 371C419 371 434 282 434 105C434 92 434 73 433 50C432 24 432 6 432-5C450-14 463-19 472-19C484-19 501-12 524 2Z"  horiz-adv-x="573" vert-adv-y="800"  />

      
      <glyph glyph-name="uni6e" unicode="&#x6e;" d="M382 152C382 235 369 301 341 352C330 372 310 390 284 406C258 422 233 430 210 430C174 430 144 410 119 371L122 411C107 428 92 436 77 436C57 436 25 412 25 391C25 376 32 338 32 322C32 311 28 286 28 275L28 66C28 15 48-10 88-10C108-10 129 3 129 22C129 33 126 50 122 72C117 95 116 112 116 123C116 204 140 273 187 330C202 349 216 358 228 358C271 358 292 287 292 144C292 131 291 110 290 81C289 52 289 31 289 16L289 4C315-9 334-16 345-16C360-16 372-8 382 7Z"  horiz-adv-x="426" vert-adv-y="800"  />

      
      <glyph glyph-name="uni6f" unicode="&#x6f;" d="M289 199C289 160 283 126 270 98C253 61 228 43 194 43C141 43 115 87 115 176C115 217 122 254 135 287C153 330 180 352 215 352C264 352 289 301 289 199ZM377 197C377 298 340 371 265 416C239 431 217 439 200 439C145 439 100 407 65 344C35 291 20 234 20 174C20 113 34 65 61 30C91-10 135-30 194-30C251-30 297-6 332 43C362 86 377 137 377 197Z"  horiz-adv-x="415" vert-adv-y="800"  />

      
      <glyph glyph-name="uni70" unicode="&#x70;" d="M276 247C276 109 248 40 193 40C178 40 164 49 149 67C130 91 117 105 110 109C114 197 137 266 178 316C199 342 217 355 230 355C261 355 276 319 276 247ZM365 238C365 290 353 333 330 368C303 408 265 428 216 428C179 428 148 410 122 373C125 412 127 438 127 453C127 470 108 485 89 485C52 485 33 457 33 400C33 390 33 368 34 333C35 306 35 284 34 267C33 250 32 221 29 178C26 140 25 110 25 88L25-153C25-166 28-186 34-211C41-240 49-256 56-261C66-268 81-272 101-272C128-272 141-261 141-238C141-234 137-225 131-210C115-173 109-123 109-59L109-29L109 1C132-18 160-27 193-27C254-27 299 4 329 65C353 112 365 170 365 238Z"  horiz-adv-x="407" vert-adv-y="800"  />

      
      <glyph glyph-name="uni71" unicode="&#x71;" d="M250 247C250 108 220 39 160 39C125 39 108 73 108 141C108 186 112 227 122 266C136 325 159 354 188 354C197 354 208 347 221 333C234 320 241 308 241 299C241 293 239 284 236 273C245 267 250 258 250 247ZM363 300C363 329 347 343 314 343C313 343 310 343 306 342L249 402C226 422 200 432 173 432C125 432 86 396 56 323C32 265 20 208 20 151C20 101 30 60 49 29C72-8 106-27 153-27C182-27 209-21 232-10C231-182 258-268 315-268C324-268 340-263 362-252L362-212C334-203 320-152 320-58C320 102 328 204 344 247C357 280 363 298 363 300Z"  horiz-adv-x="400" vert-adv-y="800"  />

      
      <glyph glyph-name="uni72" unicode="&#x72;" d="M282 344C282 354 275 368 262 385C249 403 237 415 227 420C212 429 197 433 181 433C158 433 137 423 118 402C110 415 95 421 74 421C38 421 20 406 20 376C20 343 22 292 25 225C28 158 30 108 30 74C30 69 25 54 25 47C25 14 43-3 79-3C104-3 129 12 129 35C129 40 126 48 121 61C116 71 114 100 114 147C114 197 118 236 126 264C143 327 158 359 170 359C190 359 201 344 202 314C212 299 223 292 236 292C251 292 266 302 280 322C281 332 282 339 282 344Z"  horiz-adv-x="320" vert-adv-y="800"  />

      
      <glyph glyph-name="uni73" unicode="&#x73;" d="M362 101C362 119 343 137 305 154C270 170 235 186 200 201C162 222 143 246 143 273C143 294 147 314 154 333C164 357 178 369 197 369C228 369 244 349 244 309C244 303 242 296 237 287C229 272 225 264 225 261C225 255 233 247 248 239C264 230 275 227 282 227C295 227 307 231 320 240L332 270C335 278 337 288 337 300C337 311 334 326 329 343C321 368 299 391 264 412C229 433 198 444 171 444C134 444 104 426 79 390C57 357 46 322 46 283C46 219 84 164 160 119L208 104C233 96 246 91 246 88C246 86 246 83 247 79C248 75 249 72 249 70C249 57 239 50 220 49C196 47 171 51 145 62C115 74 99 90 97 110C90 111 84 111 78 111C36 111 15 96 15 67C15 48 55 24 135-6C160-15 183-19 204-19C253-18 293-6 322 19C349 42 362 70 362 101Z"  horiz-adv-x="394" vert-adv-y="800"  />

      
      <glyph glyph-name="uni74" unicode="&#x74;" d="M269 358C269 385 243 401 191 406L191 410C191 443 205 474 205 506C205 535 174 567 146 567C127 567 101 550 101 533C101 528 103 521 107 514L107 441C107 408 101 392 87 392C86 392 84 392 81 393L75 393C54 393 34 381 17 356C16 353 15 350 15 347C15 337 24 329 41 324L94 315L94 103C94 82 98 61 107 39C118 10 132-4 149-4C170-4 197 16 197 37C197 50 195 69 190 95C186 121 184 141 184 154L184 220C184 272 185 305 186 320C241 327 269 340 269 358Z"  horiz-adv-x="297" vert-adv-y="800"  />

      
      <glyph glyph-name="uni75" unicode="&#x75;" d="M336 357C336 388 305 410 273 410C258 410 242 402 225 387C233 364 237 345 237 330L237 210C237 174 232 143 223 118C209 81 188 63 159 63C144 63 132 73 121 93C112 110 108 127 108 143L108 284C108 295 109 311 112 332C115 353 117 369 117 380C117 411 101 427 69 427C56 427 39 420 19 405C20 378 18 341 17 294C15 241 15 203 15 182C15 120 25 75 44 47C54 32 71 20 96 9C121-1 143-6 162-6C186-6 211 2 236 19C243-7 260-20 287-20C313-20 326-12 326 3C326 21 325 48 323 85C322 122 321 150 321 169C321 190 323 222 328 263C333 305 336 336 336 357Z"  horiz-adv-x="367" vert-adv-y="800"  />

      
      <glyph glyph-name="uni76" unicode="&#x76;" d="M358 383C358 414 343 430 312 430C292 430 266 413 266 393C266 342 261 285 252 223C239 132 220 87 196 87L196 90C175 119 156 163 138 221C121 279 112 326 112 362C112 373 114 386 119 401C92 420 73 430 60 430C39 430 15 410 15 389C15 378 17 363 20 344C35 265 54 195 77 136C115 41 158-7 207-7C241-7 276 50 312 163C343 262 358 335 358 383Z"  horiz-adv-x="390" vert-adv-y="800"  />

      
      <glyph glyph-name="uni77" unicode="&#x77;" d="M515 310C515 333 511 357 502 382C491 414 477 430 459 430C435 430 409 407 409 383C409 378 411 373 415 368L426 356C429 350 431 330 431 295C431 254 426 213 416 170C403 109 383 78 357 78C326 78 311 120 311 204L311 317C311 322 314 337 314 344C314 381 298 399 265 399C236 399 221 386 221 361C221 284 220 231 216 200C207 119 185 78 152 78C121 78 105 151 105 298C105 315 118 358 118 375C118 399 84 419 57 419C42 419 29 412 20 397C17 370 15 334 15 290C15 220 24 159 41 107C66 31 107-7 162-7C205-7 237 22 257 81C286 26 323-2 368-2C415-2 453 40 482 124C504 188 515 250 515 310Z"  horiz-adv-x="554" vert-adv-y="800"  />

      
      <glyph glyph-name="uni78" unicode="&#x78;" d="M431 65C412 60 400 58 393 58C387 58 364 81 324 128C284 175 264 202 264 210C264 217 289 245 340 292C391 340 416 370 416 381C416 405 394 427 369 427C351 427 301 379 220 283L180 363C162 399 140 415 117 415C86 415 65 399 53 368C66 354 86 327 114 287C145 243 162 216 164 207C65 88 15 17 15-5C15-36 39-56 86-66C138 35 179 103 209 137L277 44C306 5 340-11 370-11C381-11 394-7 409 1C424 10 431 19 431 29Z"  horiz-adv-x="466" vert-adv-y="800"  />

      
      <glyph glyph-name="uni79" unicode="&#x79;" d="M376 384C357 397 340 403 326 403C313 403 292 396 265 383C267 360 268 349 268 350L268 228C268 191 262 155 251 120C236 72 214 48 185 48C146 48 127 86 127 163C127 283 135 363 151 403C125 419 105 427 92 427C80 427 64 423 44 414C37 251 34 167 34 162C34 111 46 70 71 37C98 1 137-17 187-17C214-17 239-10 261 5C262-5 262-18 262-33C262-74 257-104 248-123C235-150 210-164 173-164C144-164 118-155 95-137C72-119 58-110 52-110C33-110 15-124 15-143C15-170 38-194 84-213C123-230 158-238 190-238C289-238 349-185 349-86L349 186C349 213 352 246 359 285C364 318 370 351 376 384Z"  horiz-adv-x="409" vert-adv-y="800"  />

      
      <glyph glyph-name="uni7a" unicode="&#x7a;" d="M352 371C352 406 325 424 272 424C240 424 195 416 137 399C68 378 34 357 34 334C34 309 54 286 79 286C81 286 98 296 131 316C164 337 198 347 231 347L236 346C225 331 199 301 156 257C111 210 80 174 61 150C30 109 15 77 15 52C15 31 25 15 45 3C62-8 81-13 103-13C125-13 159-9 204-1C249 6 284 9 308 9L335 9L352 30C337 65 309 82 266 82C251 82 228 79 197 74C166 69 143 66 128 66C123 66 117 66 111 67C120 93 151 136 206 192L323 310C334 321 341 329 344 335C349 344 352 356 352 371Z"  horiz-adv-x="384" vert-adv-y="800"  />

      
      <glyph glyph-name="uni7b" unicode="&#x7b;" d="M334 693C334 708 324 715 304 715C236 715 188 701 159 674C130 647 116 599 113 532C111 467 109 433 108 430C102 391 85 364 58 347C42 340 30 334 22 331C7 324 0 316 0 307C0 298 7 290 22 283C51 270 70 258 79 247C102 222 114 176 116 111C119 36 125-12 135-33C155-78 200-100 270-100L308-100C319-91 324-81 324-70C324-59 319-50 308-45C242-42 209-14 209 38C209 50 210 68 211 91C212 114 213 132 213 144C213 217 191 272 147 307C191 342 213 396 213 470C213 481 212 499 211 522C210 546 209 564 209 576C209 628 242 656 309 659C326 670 334 681 334 693Z"  horiz-adv-x="352" vert-adv-y="800"  />

      
      <glyph glyph-name="uni7c" unicode="&#x7c;" d="M139 27C139 32 137 40 134 49C122 82 113 141 113 225L113 411C113 487 117 546 126 587C127 588 129 597 134 613C137 623 139 632 139 639C139 668 106 690 77 690C64 690 47 683 25 668C25 653 31 615 31 599C31 549 30 474 29 374C28 274 28 199 28 149C28 39 49-16 91-16C116-16 139 3 139 27Z"  horiz-adv-x="171" vert-adv-y="800"  />

      
      <glyph glyph-name="uni7d" unicode="&#x7d;" d="M331 314C331 321 325 327 312 332C285 343 266 355 255 368C232 393 220 439 218 504C215 579 209 627 199 648C179 693 134 715 64 715L26 715C12 715 5 707 5 690C5 677 12 667 26 660C92 657 125 629 125 577C125 565 124 547 123 524C122 501 121 483 121 471C121 402 146 348 196 308C145 268 120 214 120 145C120 134 120 116 122 92C123 69 125 51 125 39C125-13 92-41 25-44C8-53 0-62 0-73C0-84 8-93 25-100L30-100C98-100 146-86 174-59C203-32 219 16 221 83C222 104 221 125 222 146C223 170 225 190 230 207C241 245 269 271 312 284C325 295 331 305 331 314Z"  horiz-adv-x="352" vert-adv-y="800"  />

      
      <glyph glyph-name="uni7e" unicode="&#x7e;" d="M369 385C352 385 303 339 281 339C243 339 219 385 168 385C136 385 31 325 31 293C31 270 49 258 84 258C84 259 127 299 151 298C170 298 222 256 270 256C301 256 404 316 404 351C404 374 390 385 369 385Z"  horiz-adv-x="451" vert-adv-y="800"  />

      
      <glyph glyph-name="unia1" unicode="&#xa1;" d="M185 225C185 250 180 272 169 292C158 298 145 301 132 301C124 301 116 300 108 299L81 276C93 231 99 205 99 198C99 204 97 190 94 155C77-16 60-117 41-147C33-159 28-168 25-173C51-198 75-211 97-211C122-211 146-201 170-180L155-126C149-104 146-85 146-70C146-59 153-18 167 52C179 111 185 169 185 225ZM238 409C238 424 234 439 226 456C192 469 169 476 158 476C93 476 61 448 61 392C61 377 74 365 100 356C121 349 140 345 159 345C212 345 238 366 238 409Z"  horiz-adv-x="275" vert-adv-y="800"  />

      
      <glyph glyph-name="unia2" unicode="&#xa2;" d="M207 242C182 243 161 252 142 268C121 286 111 307 111 330C111 372 143 409 207 441ZM486 475C486 500 465 522 424 541C389 557 357 565 328 565C323 565 315 564 302 563C303 571 306 585 311 604C316 621 318 634 318 645C318 674 287 703 255 703C234 703 216 693 200 674L200 663C200 624 206 595 209 576L208 541C187 530 170 522 159 518C122 499 92 475 68 446C39 413 25 378 25 341C25 292 44 251 82 219C115 192 157 175 209 166L209 106C209 97 205 72 205 63C205 44 210 26 221 9C234-11 249-21 267-21C277-21 293-15 316-2C307 60 302 118 299 171L408 208C455 229 479 254 479 283C479 294 474 305 464 316L428 316C427 316 409 307 374 288C337 267 310 255 295 252L295 474C295 481 299 484 308 484C315 484 332 475 358 457C384 440 407 431 428 431C457 431 486 447 486 475Z"  horiz-adv-x="534" vert-adv-y="800"  />

      
      <glyph glyph-name="unia3" unicode="&#xa3;" d="M565 490C565 516 543 547 500 584C461 616 427 637 397 647C355 660 318 667 286 667C240 667 194 649 149 613C101 575 77 534 77 490C77 477 72 443 72 430C72 415 76 392 84 361C45 361 25 350 25 327C25 297 39 282 68 282C69 282 87 284 120 288C140 261 160 239 164 203L130 128C116 98 99 78 80 67C75 59 72 51 72 44C72 20 98 3 123 3C158 3 210 2 279 0C349-2 401-3 436-3C499-3 552 35 552 95C552 101 552 107 551 113C543 122 534 126 524 126C513 126 500 121 486 111C479 87 452 75 406 75C379 75 344 76 299 78L192 82L226 141C241 168 248 189 248 203C248 232 239 261 220 289C227 289 240 287 261 284C278 282 291 281 301 281C346 281 368 295 368 324C368 344 351 360 331 360L175 360C160 379 152 409 152 449C152 490 165 524 191 552C218 580 251 594 291 594C324 594 356 585 389 567C422 549 447 527 464 500C443 504 420 482 420 461C420 434 451 415 479 415C496 415 515 423 535 440C555 457 565 473 565 490Z"  horiz-adv-x="616" vert-adv-y="800"  />

      
      <glyph glyph-name="uni2044" unicode="&#x2044;" d="M265 622C265 653 233 675 201 675C188 675 178 671 170 662C152 641 132 619 16 378C-73 192-108 86-108 35C-108 6-91-8-58-8C-39-8-23 7-23 24C-23 31-27 39-35 46C-20 107 15 198 75 317C136 438 182 521 219 566C247 586 265 603 265 622Z"  horiz-adv-x="138" vert-adv-y="800"  />

      
      <glyph glyph-name="unia5" unicode="&#xa5;" d="M621 673C585 712 557 731 537 731C522 731 506 724 488 710C477 672 458 628 430 582L357 461C346 442 339 428 334 419C219 594 135 682 83 682C55 682 25 664 25 636C25 625 31 613 42 599L63 599L79 608C98 603 135 562 188 484C226 429 258 378 284 332L283 311L178 311C159 311 141 296 141 276C141 247 153 233 178 233L279 233L277 202L175 202C156 202 138 187 138 167C138 137 150 122 175 122L270 122C266 82 263 59 260 54C253 41 249 32 249 29C249 18 256 7 270-3C285-13 298-18 309-18C324-18 339-11 356 2C373 16 381 30 381 44L381 122L493 122C513 122 530 138 530 158C530 187 518 202 493 202L381 202L381 233L493 233C513 233 530 248 530 268C530 297 518 311 493 311L381 311L381 337C381 342 409 388 465 474C521 560 553 609 565 621C590 646 608 662 621 673Z"  horiz-adv-x="675" vert-adv-y="800"  />

      
      <glyph glyph-name="uni0192" unicode="&#x0192;" d="M382 300C382 340 341 345 265 345C281 493 295 571 334 571C371 571 371 533 381 533C402 533 412 546 412 571C412 619 364 649 327 649C256 649 206 601 182 342C147 339 80 325 80 309C80 290 86 250 121 250C134 250 148 254 175 261C171 219 150-30 101-30C61-30 66 14 52 14C31 14 21-1 21-24C21-71 45-108 108-108C222-108 245 120 257 268C310 265 319 259 349 259C376 259 382 264 382 300Z"  horiz-adv-x="441" vert-adv-y="800"  />

      
      <glyph glyph-name="unia7" unicode="&#xa7;" d="M187 322C232 295 252 284 252 277C252 264 242 227 215 227C188 227 163 233 138 249C142 280 164 310 187 322ZM346 287C346 304 324 329 285 352C234 383 202 404 190 414C159 440 144 464 144 489C144 534 167 587 196 587C226 587 241 560 241 505C241 480 239 463 234 454C231 447 224 443 219 443C224 419 262 395 274 395C285 395 296 399 307 408C318 442 323 471 323 496C323 519 318 538 315 558C304 601 216 659 172 659C111 659 58 578 58 499C58 447 79 403 122 366C82 342 51 298 51 231C51 103 151 28 245-45L244-45C253-54 257-58 257-57C257-64 249-68 233-68C194-68 109-14 106 21L85 21C50 21 34 12 34-21C34-34 50-54 83-81C142-128 173-136 203-136C268-136 351-99 351-47C351-29 331-7 290 18C234 51 173 102 148 163C163 161 179 160 197 160C261 160 346 239 346 287Z"  horiz-adv-x="411" vert-adv-y="800"  />

      
      <glyph glyph-name="unia4" unicode="&#xa4;" d="M346 310C346 245 310 192 250 192C197 192 170 233 170 293C170 365 212 425 270 425C318 425 346 377 346 310ZM425 309C425 340 418 369 404 396C433 423 494 451 494 478C494 509 468 531 437 542L354 463C327 484 293 498 256 498C221 498 190 485 163 465C123 512 88 544 73 544C46 544 27 523 18 492C47 461 80 429 109 398C92 363 83 328 83 291C83 260 88 233 99 212C54 163 34 134 34 125C34 116 47 74 73 74C91 74 108 106 154 152C179 138 211 131 250 131C286 131 320 142 347 159C404 107 431 87 442 87C462 87 494 97 494 126C494 139 454 172 403 220C418 246 425 276 425 309Z"  horiz-adv-x="538" vert-adv-y="800"  />

      
      <glyph glyph-name="uni27" unicode="&#x27;" d="M114 655C114 672 90 686 71 686C70 686 68 685 64 684C51 680 40 652 33 600C28 561 25 528 25 500L25 495C33 481 47 474 68 474C79 474 85 476 87 481L87 506C87 515 88 529 90 547C93 565 94 579 94 588C94 601 97 616 104 631C111 646 114 654 114 655Z"  horiz-adv-x="145" vert-adv-y="800"  />

      
      <glyph glyph-name="uni201C" unicode="&#x201C;" d="M147 461C147 488 129 499 106 514C83 529 84 553 91 572C102 605 127 625 154 640C169 659 155 674 134 677C107 677 71 649 44 614C17 581 8 549 8 493C8 441 40 402 79 402C115 402 147 430 147 461ZM306 461C306 488 288 499 265 514C242 529 243 553 250 572C261 605 286 625 313 640C328 659 314 674 293 677C266 677 230 649 203 614C176 581 167 549 167 493C167 441 199 402 238 402C274 402 306 430 306 461Z"  horiz-adv-x="318" vert-adv-y="800"  />

      
      <glyph glyph-name="uniab" unicode="&#xab;" d="M173 488C173 505 161 523 142 523C137 523 132 522 127 519L17 358C9 353 5 347 5 340C5 333 23 306 58 258C89 215 111 187 124 172C131 163 139 159 150 159C163 159 170 167 170 183C170 208 156 241 124 280C107 302 88 322 71 343L166 467C171 473 173 480 173 488ZM315 155C315 182 299 224 258 273L200 343L259 416C289 453 303 478 303 488C303 505 291 523 272 523C267 523 262 522 257 519L147 358C139 353 135 347 135 340C135 333 155 300 195 243C232 190 257 156 269 143C276 135 285 131 295 131C308 131 315 139 315 155Z"  horiz-adv-x="366" vert-adv-y="800"  />

      
      <glyph glyph-name="uni2039" unicode="&#x2039;" d="M183 488C183 505 171 523 152 523C147 523 142 522 137 519L27 358C19 353 15 347 15 340C15 333 33 306 68 258C99 215 121 187 134 172C141 164 149 160 160 160C173 160 180 168 180 184C180 209 166 242 134 281C117 303 98 323 81 344L176 468C181 473 183 480 183 488Z"  horiz-adv-x="228" vert-adv-y="800"  />

      
      <glyph glyph-name="uni203A" unicode="&#x203A;" d="M203 343C203 350 185 377 150 425C119 468 98 496 85 511C78 519 69 523 58 523C45 523 38 515 38 499C38 474 51 440 84 402L138 339L42 216C37 210 35 203 35 195C35 178 47 160 66 160C71 160 76 161 81 164L191 325C199 330 203 336 203 343Z"  horiz-adv-x="228" vert-adv-y="800"  />

      
      <glyph glyph-name="uniFB01" unicode="&#xFB01;" d="M436 385C436 410 389 427 354 427C335 427 326 421 326 409C326 404 326 401 327 399C322 354 319 300 319 233C319 194 322 136 329 57C333 15 356-6 398-6C410-6 421 2 431 17C424 45 420 65 420 77L420 283C420 302 436 364 436 385ZM445 525C445 561 412 587 376 587C369 587 362 586 356 584C359 589 360 594 360 598C360 651 319 684 254 684C149 684 86 569 86 405C86 371 85 351 83 344C20 344 5 335 5 300C5 276 25 260 48 260C47 260 57 261 79 263C76 146 75 83 75 71C75 27 97-24 125-24C138-24 157-17 182-2C171 34 166 70 166 107L166 198C166 224 167 248 169 270C171 271 175 271 182 271C213 271 235 274 248 281L257 319C245 341 225 352 197 352C194 352 191 352 172 351C175 510 200 602 245 602C274 602 281 598 282 571C292 563 301 559 310 559C317 559 323 560 329 562C324 555 322 547 322 537C322 502 357 475 393 475C422 475 445 496 445 525Z"  horiz-adv-x="467" vert-adv-y="800"  />

      
      <glyph glyph-name="uniFB02" unicode="&#xFB02;" d="M454 27C454 32 452 39 449 49C437 82 428 140 428 225L428 411C428 487 431 546 441 587C441 587 454 620 454 639C454 668 421 690 392 690C379 690 361 683 340 668C340 664 340 659 341 652L328 664C309 677 284 684 254 684C149 684 86 569 86 405C86 371 85 351 83 344C20 344 5 335 5 300C5 276 25 260 48 260C47 260 57 261 79 263C76 146 75 83 75 71C75 27 97-24 125-24C138-24 157-17 182-2C171 34 166 70 166 107L166 198C166 224 167 248 169 270C171 271 175 271 182 271C213 271 235 274 248 281L257 319C245 341 225 352 197 352C194 352 191 352 184 351L172 351C175 510 200 602 245 602C274 602 281 598 282 571C292 563 301 559 310 559C322 559 335 563 346 571C346 479 343 223 343 149C343 39 364-16 406-16C431-16 454 3 454 27Z"  horiz-adv-x="481" vert-adv-y="800"  />

      
      <glyph glyph-name="uni2013" unicode="&#x2013;" d="M418 275C418 288 407 299 385 306C368 312 351 315 336 315C305 315 179 305 35 305C26 305 25 294 25 275C25 258 53 238 70 238C90 238 117 257 210 257C291 257 339 255 352 251C368 246 378 243 381 243C412 243 418 247 418 275Z"  horiz-adv-x="463" vert-adv-y="800"  />

      
      <glyph glyph-name="uni2020" unicode="&#x2020;" d="M275 548C275 575 249 591 197 596C201 615 211 631 211 646C211 675 180 707 152 707C113 707 94 679 94 656C94 636 113 618 113 597C113 584 71 585 66 582C53 577 21 557 21 537C21 527 30 519 47 514L100 505C100 365 104 235 110 103C112 57 125-4 143-4C163-4 173 16 173 37C173 92 179 152 190 220C192 297 193 364 193 423C193 455 193 483 192 510C247 517 275 530 275 548Z"  horiz-adv-x="324" vert-adv-y="800"  />

      
      <glyph glyph-name="uni2021" unicode="&#x2021;" d="M21 141C21 114 47 98 99 93C95 74 85 58 85 43C85 14 116-18 144-18C183-18 202 10 202 33C202 53 183 71 183 92C183 105 224 104 230 107C243 112 275 132 275 152C275 162 266 170 249 175L196 184C188 213 188 291 180 355C188 440 192 475 192 510C247 517 275 530 275 548C275 575 249 591 197 596C201 615 211 631 211 646C211 675 180 707 152 707C113 707 94 679 94 656C94 636 113 618 113 597C113 584 71 585 66 582C53 577 21 557 21 537C21 527 30 519 47 514L100 505C108 477 110 397 115 334C107 249 104 214 104 179C49 172 21 159 21 141Z"  horiz-adv-x="307" vert-adv-y="800"  />

      
      <glyph glyph-name="unib6" unicode="&#xb6;" d="M263 594C261 557 261 529 260 511L252 303C163 304 110 363 110 459C110 543 157 595 240 595C248 595 256 595 263 594ZM373 439C373 390 372 349 369 314L323 315L330 578L369 578C372 542 373 496 373 439ZM489 292C489 312 474 330 453 331C456 364 458 395 458 424C458 450 456 495 452 559C475 562 486 575 486 598C486 618 474 631 449 636C450 685 437 709 408 709C385 709 368 692 368 671L368 648L332 649C327 682 313 699 289 699C269 699 248 684 248 661C248 659 248 657 249 655L240 655C177 655 126 636 85 599C45 562 25 513 25 454C25 391 45 340 85 299C125 258 176 236 239 232C237 140 240 73 246 32C250 9 263-2 286-2C309-2 326 14 326 37C326 57 324 88 323 129C321 171 321 203 321 224L321 236C338 237 351 237 361 237C360 222 360 204 361 181C362 148 363 130 363 125L363 15C363 4 367-10 375-27C385-47 396-57 408-57C417-57 425-47 433-26C440-9 443 5 443 16C443 27 444 45 446 72C449 99 450 119 450 131C450 142 449 158 446 180C443 203 442 219 442 230C442 237 442 244 443 251C474 258 489 271 489 292Z"  horiz-adv-x="537" vert-adv-y="800"  />

      
      <glyph glyph-name="uni2022" unicode="&#x2022;" d="M223 315C223 336 212 353 190 366C171 377 152 383 131 383C112 383 93 375 76 360C59 345 50 328 50 308C50 256 83 230 148 230C192 230 223 270 223 315Z"  horiz-adv-x="285" vert-adv-y="800"  />

      
      <glyph glyph-name="uni201A" unicode="&#x201A;" d="M54 60C54 33 72 22 95 7C118-8 117-32 110-51C99-84 74-104 47-119C32-138 46-153 67-156C94-156 130-128 157-93C184-60 193-28 193 28C193 80 161 119 122 119C86 119 54 91 54 60Z"  horiz-adv-x="247" vert-adv-y="800"  />

      
      <glyph glyph-name="uni201E" unicode="&#x201E;" d="M45 60C45 33 63 22 86 7C109-8 108-32 101-51C90-84 65-104 38-119C23-138 37-153 58-156C85-156 121-128 148-93C175-60 184-28 184 28C184 80 152 119 113 119C77 119 45 91 45 60ZM211 60C211 33 229 22 252 7C275-8 274-32 267-51C256-84 231-104 204-119C189-138 203-153 224-156C251-156 287-128 314-93C341-60 350-28 350 28C350 80 318 119 279 119C243 119 211 91 211 60Z"  horiz-adv-x="382" vert-adv-y="800"  />

      
      <glyph glyph-name="uni201D" unicode="&#x201D;" d="M163 606C163 579 181 568 204 553C227 538 226 514 219 495C208 462 183 442 156 427C141 408 155 393 176 390C203 390 239 418 266 453C293 486 302 518 302 574C302 626 270 665 231 665C195 665 163 637 163 606ZM4 606C4 579 22 568 45 553C68 538 67 514 60 495C49 462 24 442-3 427C-18 408-4 393 17 390C44 390 80 418 107 453C134 486 143 518 143 574C143 626 111 665 72 665C36 665 4 637 4 606Z"  horiz-adv-x="298" vert-adv-y="800"  />

      
      <glyph glyph-name="unibb" unicode="&#xbb;" d="M205 345C205 351 187 380 150 431C113 482 91 512 82 519C77 523 71 525 64 525C45 525 35 517 35 501C35 491 49 464 80 422L140 341C121 315 100 289 81 263C51 222 37 197 37 187C37 170 51 152 68 152C73 152 79 153 84 156L194 327C201 331 205 337 205 345ZM335 345C335 351 318 378 284 426C250 472 229 498 221 505C216 509 211 511 204 511C184 511 174 503 174 487C174 478 206 429 270 341C208 254 177 206 177 197C177 180 191 162 208 162C213 162 219 163 224 166L324 327C331 331 335 337 335 345Z"  horiz-adv-x="356" vert-adv-y="800"  />

      
      <glyph glyph-name="uni2026" unicode="&#x2026;" d="M158 23C158 36 148 46 127 54C112 59 97 63 80 63C43 63 25 51 25 28C25 16 33 6 48-2C61-8 74-11 88-11C101-11 115-8 130-3C149 4 158 13 158 23ZM378 23C378 36 368 46 347 54C332 59 317 63 300 63C263 63 245 51 245 28C245 16 253 6 268-2C281-8 294-11 308-11C321-11 335-8 350-3C369 4 378 13 378 23ZM598 23C598 36 588 46 567 54C552 59 537 63 520 63C483 63 465 51 465 28C465 16 473 6 488-2C501-8 514-11 528-11C541-11 555-8 570-3C589 4 598 13 598 23Z"  horiz-adv-x="651" vert-adv-y="800"  />

      
      <glyph glyph-name="uni2030" unicode="&#x2030;" d="M261 530C261 465 231 416 191 416C148 416 120 450 120 499C120 551 154 622 198 622C238 622 261 586 261 530ZM335 528C335 600 268 690 207 690C113 690 45 594 45 499C45 411 101 342 186 342C272 342 335 431 335 528ZM564 622C564 653 532 675 500 675C487 675 477 671 469 662C451 641 431 619 315 378C226 192 191 86 191 35C191 6 208-8 241-8C260-8 276 7 276 24C276 31 272 39 264 46C279 107 314 198 374 317C435 438 481 521 518 566C546 586 564 603 564 622ZM564 182C564 117 534 68 494 68C451 68 423 102 423 151C423 203 457 274 501 274C541 274 564 238 564 182ZM638 180C638 252 571 342 510 342C416 342 348 246 348 151C348 63 404-6 489-6C575-6 638 83 638 180ZM869 182C869 117 839 68 799 68C756 68 728 102 728 151C728 203 762 274 806 274C846 274 869 238 869 182ZM943 180C943 252 876 342 815 342C721 342 653 246 653 151C653 63 709-6 794-6C880-6 943 83 943 180Z"  horiz-adv-x="988" vert-adv-y="800"  />

      
      <glyph glyph-name="unibf" unicode="&#xbf;" d="M531-14C531 3 521 20 501 36C481 53 462 61 445 61C432 61 418 56 403 45C388 34 381 23 381 10C381-5 394-16 420-23C401-42 372-62 331-82C288-103 254-113 229-113C203-113 181-106 162-92C141-77 131-56 131-31C131 2 155 35 207 66C253 94 302 117 348 145C400 176 425 211 425 245C425 265 414 283 392 300C370 317 349 325 329 325C320 325 312 324 304 322L303 315C303 304 307 292 314 279C321 266 325 257 325 252C325 233 299 208 247 179C167 134 119 106 103 94C51 55 25 13 25-31C25-75 52-115 105-151C154-184 201-201 247-201C274-201 310-192 357-175C389-163 424-141 463-109C508-72 531-40 531-14ZM420 416C420 429 413 440 398 450C383 460 369 465 356 465C345 465 331 461 315 452C296 442 287 432 287 422C287 408 297 396 316 385C333 376 349 372 364 372C389 372 420 392 420 416Z"  horiz-adv-x="581" vert-adv-y="800"  />

      
      <glyph glyph-name="uni60" unicode="&#x60;" d="M206 720C206 723 205 728 202 735C186 758 165 778 145 797C117 822 90 838 71 838C48 838 17 805 14 780L20 764C31 757 43 753 62 746C70 743 79 738 88 731C121 702 148 688 171 688C194 688 206 699 206 720Z"  horiz-adv-x="225" vert-adv-y="800"  />

      
      <glyph glyph-name="unib4" unicode="&#xb4;" d="M214 793C209 817 180 844 156 844C138 844 112 828 77 795C54 772 33 751 13 727L13 715C13 694 25 683 44 683C56 683 81 693 118 715C157 738 179 751 186 754C197 758 205 768 212 783Z"  horiz-adv-x="236" vert-adv-y="800"  />

      
      <glyph glyph-name="uni02C6" unicode="&#x02C6;" d="M298 730C298 735 296 741 293 746C220 807 176 837 163 837C151 837 125 821 85 789C45 758 25 737 25 726C25 717 34 712 51 712C62 712 86 725 121 751C139 761 153 768 163 771C172 768 178 765 183 764C191 761 206 751 229 734C248 719 264 712 275 712C290 712 298 718 298 730Z"  horiz-adv-x="337" vert-adv-y="800"  />

      
      <glyph glyph-name="uni02DC" unicode="&#x02DC;" d="M309 765C309 782 298 790 277 790C270 790 259 785 245 776C232 767 221 763 212 763C207 763 195 767 178 776C161 785 145 790 129 790C114 790 93 784 68 773C39 760 25 746 25 733C25 717 36 709 57 709C62 709 71 713 84 720C97 727 108 731 117 731C124 731 136 727 155 718C174 709 190 705 204 705C219 705 240 711 266 724C295 739 309 752 309 765Z"  horiz-adv-x="349" vert-adv-y="800"  />

      
      <glyph glyph-name="uni02D8" unicode="&#x02D8;" d="M285 791C285 808 273 816 250 816C235 816 225 812 221 804L209 782C200 775 181 771 152 771C126 771 109 775 100 782C93 797 91 816 60 816C37 816 25 808 25 791C25 766 41 746 73 731C98 720 126 714 155 714C184 714 212 720 237 731C269 746 285 766 285 791Z"  horiz-adv-x="324" vert-adv-y="800"  />

      
      <glyph glyph-name="uni02D9" unicode="&#x02D9;" d="M145 758C145 785 113 800 85 800C71 800 58 797 46 790C32 782 25 771 25 758C25 745 32 735 46 727C58 720 71 717 85 717C113 717 145 733 145 758Z"  horiz-adv-x="178" vert-adv-y="800"  />

      
      <glyph glyph-name="unia8" unicode="&#xa8;" d="M125 748C125 772 100 790 75 790C50 790 25 772 25 748C25 725 50 707 75 707C100 707 125 725 125 748ZM275 748C275 772 250 790 225 790C200 790 175 772 175 748C175 725 200 707 225 707C250 707 275 725 275 748Z"  horiz-adv-x="314" vert-adv-y="800"  />

      
      <glyph glyph-name="uni02DA" unicode="&#x02DA;" d="M131 773C131 758 121 751 102 751C83 751 73 758 73 773C73 788 83 795 102 795C121 795 131 788 131 773ZM179 773C179 790 170 805 153 816C138 825 121 830 102 830C83 830 66 825 51 816C34 805 25 790 25 773C25 756 34 741 51 730C66 721 83 716 102 716C139 716 179 738 179 773Z"  horiz-adv-x="213" vert-adv-y="800"  />

      
      <glyph glyph-name="unib8" unicode="&#xb8;" d="M171-76C171-61 161-50 142-43C135-40 119-37 95-33C106-17 115-5 121 2L69 1C60-7 52-15 43-22C31-33 25-42 25-49C25-58 38-65 65-70C96-76 114-80 117-82C73-103 48-115 42-119C36-124 33-129 33-136C33-147 42-154 59-157C92-146 116-137 129-130C157-115 171-97 171-76Z"  horiz-adv-x="204" vert-adv-y="800"  />

      
      <glyph glyph-name="uni02DD" unicode="&#x02DD;" d="M127 822C117 837 102 845 82 845C65 845 52 830 42 799C41 796 35 774 25 732C30 719 36 713 42 713C56 713 76 737 102 785C109 790 115 794 120 795C125 800 128 807 127 815ZM247 822C237 837 222 845 202 845C185 845 169 827 151 791C139 766 129 740 123 714C128 701 134 695 140 695C147 695 161 708 184 734C203 757 216 774 222 785C229 790 235 794 240 795C245 800 248 807 247 815Z"  horiz-adv-x="285" vert-adv-y="800"  />

      
      <glyph glyph-name="uni02DB" unicode="&#x02DB;" d="M191-130C191-116 183-109 166-109C155-109 137-127 126-127C106-127 89-100 89-80C89-67 96-50 110-30C124-10 131 3 131 10C131 23 123 29 108 29C100 29 92 26 85 19C45-16 25-50 25-85C25-133 67-169 116-169C130-169 145-166 161-159C181-151 191-141 191-130Z"  horiz-adv-x="226" vert-adv-y="800"  />

      
      <glyph glyph-name="uni02C7" unicode="&#x02C7;" d="M298 823C298 832 289 837 272 837C261 837 237 824 202 798C184 788 170 781 160 778C151 781 144 784 139 785C132 788 117 798 94 815C75 830 59 837 48 837C33 837 25 831 25 819C25 814 26 808 29 803C103 742 147 712 160 712C172 712 198 728 238 759C278 791 298 812 298 823Z"  horiz-adv-x="337" vert-adv-y="800"  />

      
      <glyph glyph-name="uni2014" unicode="&#x2014;" d="M818 272C818 287 808 298 787 306C771 312 754 316 737 315L25 290L25 258C25 241 51 218 70 218C79 218 90 220 104 225C121 231 132 234 138 235C167 240 202 243 245 243L354 243C544 243 665 249 717 249C733 249 766 238 781 238C787 238 798 240 813 244C816 259 818 269 818 272Z"  horiz-adv-x="881" vert-adv-y="800"  />

      
      <glyph glyph-name="unic6" unicode="&#xc6;" d="M443 539C444 514 442 481 440 440C437 385 435 352 435 340C411 335 399 320 399 295C399 269 410 255 433 254L433 216C365 218 310 218 269 212C229 206 199 200 180 196C313 461 394 593 425 593C432 593 438 590 442 584ZM881 67C881 68 881 71 880 75L880 84C866 108 838 120 796 120C770 120 732 111 683 93C634 76 597 67 570 67C542 67 527 87 524 128C551 129 572 151 572 178C572 196 557 208 528 215L529 269C592 287 652 296 708 296C712 296 721 289 735 275C758 292 770 307 770 319L770 346C735 363 706 371 682 371C674 371 648 369 604 366C560 363 536 361 533 360C536 453 540 526 545 579C565 590 605 598 664 604C711 609 753 612 790 612C798 612 819 609 827 609C842 609 860 618 879 637C844 677 805 697 761 697C752 697 741 695 728 693C616 673 537 665 490 665C473 665 433 677 416 677C385 677 335 625 266 520C222 452 180 383 145 311C100 218 72 145 51 98C36 63 25 45 25 40C25 12 56-15 85-15C98-15 109-9 118 2C129 67 138 103 145 109C154 117 195 123 267 128C320 132 366 134 403 134C411 134 421 133 433 132C440 35 483-13 562-13C593-13 636-4 693 14C750 32 793 41 823 41C828 41 841 38 846 38C869 38 881 48 881 67Z"  horiz-adv-x="947" vert-adv-y="800"  />

      
      <glyph glyph-name="uniaa" unicode="&#xaa;" d="M188 374C188 358 163 341 138 341C122 341 114 345 114 352C114 369 135 378 178 378C185 378 188 377 188 374ZM261 395C261 499 222 551 145 551C98 551 59 517 59 469C59 452 82 433 97 433C113 433 121 440 121 455C121 479 134 491 160 491C179 491 188 473 188 438L188 429C179 430 169 431 158 431C114 431 38 398 38 351C38 315 88 282 136 282C153 282 171 284 188 292C191 272 199 264 224 264C257 264 262 291 262 342C262 375 261 384 261 395Z"  horiz-adv-x="306" vert-adv-y="800"  />

      
      <glyph glyph-name="uni0141" unicode="&#x0141;" d="M404 391C404 434 375 449 332 449C303 449 277 434 170 394C178 475 182 537 182 581C182 628 160 677 127 677C107 677 91 669 78 653C77 642 76 634 76 626C76 613 80 566 80 555C80 516 77 457 70 380C69 372 68 364 68 356C50 351 1 339 1 327C1 299 23 260 62 260C61 237 61 220 61 205C61 52 109-13 222-13C302-13 378 0 450 26C450 73 428 101 395 101C361 101 257 60 223 60C178 60 156 99 156 178C156 211 158 256 163 315C276 353 322 366 340 366C352 366 361 364 368 364C395 364 404 379 404 391Z"  horiz-adv-x="495" vert-adv-y="800"  />

      
      <glyph glyph-name="unid8" unicode="&#xd8;" d="M364 584C306 439 235 286 152 124C127 167 114 213 114 262C114 389 147 483 213 543C250 577 288 594 325 594C336 594 349 591 364 584ZM481 348C481 273 468 209 441 157C407 90 356 56 287 56C264 56 242 60 222 67C255 132 292 209 331 298C331 298 365 376 433 533C465 492 481 430 481 348ZM577 340C577 461 542 555 473 623C496 672 515 708 528 732C510 751 493 760 478 760C428 760 400 732 393 675C369 683 344 687 318 687C225 687 151 642 96 553C49 477 25 389 25 290C25 177 53 96 110 45C84 4 71-19 71-26C71-46 89-60 110-60C135-60 160-40 186 1C224-13 258-20 289-20C381-20 454 18 507 94C554 161 577 243 577 340Z"  horiz-adv-x="629" vert-adv-y="800"  />

      
      <glyph glyph-name="uni0152" unicode="&#x0152;" d="M434 531C427 464 424 362 424 223C424 161 417 119 403 98C384 71 346 58 287 58C226 58 180 85 151 139C128 181 117 236 117 303C117 410 149 491 212 549C249 583 287 601 325 601C363 601 399 578 434 531ZM872 58C852 93 817 110 766 110C743 110 711 102 669 86C628 71 596 63 573 63C536 63 517 97 517 164C517 175 516 191 515 210C514 232 514 247 514 256C574 273 633 282 690 282C701 282 712 278 723 271C740 279 771 299 771 310L761 347C736 359 713 365 693 365C672 365 642 361 603 352C564 343 535 339 516 338C519 407 523 478 529 552C550 563 592 575 653 586C710 597 753 602 782 602C790 602 811 599 819 599C834 599 852 608 871 627C836 667 796 687 752 687C717 687 671 680 616 667C541 649 496 639 481 637C473 636 467 634 462 631C420 666 372 684 318 684C225 684 151 640 96 551C49 476 25 389 25 290C25 214 37 153 62 108C91 55 139 17 206-4C237-13 264-18 289-18C356-18 413 3 462 45C489 1 530-21 585-21C612-21 650-12 699 5C749 22 787 31 814 31C819 31 833 28 838 28C852 28 863 38 872 58Z"  horiz-adv-x="938" vert-adv-y="800"  />

      
      <glyph glyph-name="uniba" unicode="&#xba;" d="M194 412C194 364 177 330 146 330C121 330 109 353 109 399C109 452 128 493 159 493C182 493 194 466 194 412ZM260 411C260 459 246 497 217 525C201 541 177 558 150 558C89 558 38 476 38 397C38 320 78 272 146 272C213 272 260 331 260 411Z"  horiz-adv-x="304" vert-adv-y="800"  />

      
      <glyph glyph-name="unie6" unicode="&#xe6;" d="M283 136C283 115 271 98 247 84C226 71 205 65 183 65C146 65 128 76 128 97C128 136 170 155 253 155C273 155 283 149 283 136ZM510 277C510 234 478 196 437 196C410 196 381 213 381 237C381 257 389 280 404 305C421 333 439 347 457 347C489 347 510 310 510 277ZM619 108C619 131 599 152 576 152C566 152 548 137 522 107C497 77 471 62 444 62C396 62 371 87 369 138C388 130 408 120 424 120C470 120 511 135 548 165C587 197 607 235 607 280C607 315 586 349 543 382C501 415 462 431 425 431C392 431 363 410 338 369C305 402 244 425 196 425C159 425 126 406 98 369C73 334 60 297 60 259C60 236 91 210 114 210C133 210 142 218 142 235C142 259 149 283 163 307C179 334 198 348 221 348C263 348 283 313 283 244L283 221L198 221C164 221 128 209 89 184C46 157 25 127 25 96C25 64 44 38 81 17C112 0 145-9 180-9C227-9 274 4 322 31C353 2 392-12 440-12C476-12 513-1 552 21C597 46 619 75 619 108Z"  horiz-adv-x="673" vert-adv-y="800"  />

      
      <glyph glyph-name="uni0131" unicode="&#x0131;" d="M132 375C132 384 124 393 109 402C94 411 81 415 70 415C59 415 44 410 25 401L25 55C25 14 48-6 94-6C106-6 117 1 127 16C120 43 116 62 116 75L116 276C116 287 119 304 124 325C129 347 132 364 132 375Z"  horiz-adv-x="164" vert-adv-y="800"  />

      
      <glyph glyph-name="uni0142" unicode="&#x0142;" d="M219 27C219 32 217 39 214 49C202 82 193 141 193 225L193 393C232 410 257 418 266 418C274 417 281 416 286 416C305 416 313 430 313 438C313 465 295 497 248 497C231 497 222 493 194 477C196 522 200 559 206 587C213 606 219 620 219 639C219 668 186 690 157 690C144 690 126 683 105 668C105 653 111 615 111 599C111 559 110 505 109 433C96 425 4 388 4 379C4 363 26 313 64 313C80 313 82 329 108 350C108 321 107 294 107 269C107 77 110-16 171-16C196-16 219 3 219 27Z"  horiz-adv-x="314" vert-adv-y="800"  />

      
      <glyph glyph-name="unif8" unicode="&#xf8;" d="M294 199C294 159 288 125 276 97C259 60 234 41 199 41C189 41 180 43 171 47C200 100 238 176 285 275C291 252 294 226 294 199ZM236 351C212 300 174 226 123 129C121 143 120 159 120 176C120 217 127 255 140 288C158 331 185 353 220 353C225 353 231 352 236 351ZM384 454C367 471 351 479 338 479C304 479 279 460 263 422C239 435 220 442 205 442C150 442 104 410 69 345C40 291 25 234 25 173C25 110 39 61 67 26C50-2 38-24 31-41C31-62 43-72 66-72C90-72 112-55 133-22C153-29 175-32 199-32C257-32 303-8 337 41C367 84 382 136 382 197C382 268 365 325 330 368C353 407 371 435 384 454Z"  horiz-adv-x="427" vert-adv-y="800"  />

      
      <glyph glyph-name="uni0153" unicode="&#x0153;" d="M294 199C294 160 288 126 275 98C258 61 233 43 199 43C146 43 120 87 120 176C120 217 127 254 140 287C158 330 185 352 220 352C269 352 294 301 294 199ZM360 122C359 123 359 123 360 124ZM524 282C524 261 516 241 500 222C484 204 465 195 444 195C413 195 382 216 382 247C382 299 411 347 459 347C495 347 524 318 524 282ZM627 107C627 131 607 151 583 151C574 151 562 143 548 128C527 105 514 90 507 85C487 69 466 61 443 61C408 61 386 82 379 124C412 118 429 115 431 115C477 115 519 131 557 163C595 196 614 235 614 280C614 324 596 360 559 389C525 416 485 430 440 430C398 430 364 408 337 363C302 414 258 439 205 439C150 439 105 407 70 344C40 291 25 234 25 174C25 113 39 65 66 30C96-10 140-30 199-30C253-30 297-9 330 34C357 3 396-13 447-13C484-13 521-2 560 19C605 44 627 74 627 107Z"  horiz-adv-x="681" vert-adv-y="800"  />

      
      <glyph glyph-name="unidf" unicode="&#xdf;" d="M465 137C465 194 451 246 423 294C393 345 353 380 302 400L322 395C344 412 363 437 380 470C397 503 406 533 406 560C406 600 391 632 362 657C335 680 301 691 261 691C162 691 95 631 58 511C36 440 25 339 25 210C25 93 29 28 38 15C49-2 62-10 77-10C98-10 124 12 124 33C124 39 123 49 121 63C115 104 112 156 112 219C112 482 162 613 261 613C298 613 317 594 317 556C317 528 303 497 275 464C249 433 222 412 194 400C188 389 185 379 185 370C185 347 204 332 227 332L232 332C235 333 237 333 238 333C277 330 310 307 338 265C363 227 376 188 376 147C376 114 369 84 354 57C336 22 310-3 276-20C269-23 243-32 198-46C175-53 163-64 163-79C163-102 186-117 211-117C281-117 341-92 390-43C440 6 465 66 465 137Z"  horiz-adv-x="512" vert-adv-y="800"  />

      
      <glyph glyph-name="unib9" unicode="&#xb9;" d="M125 651C125 668 102 695 83 695C56 695 21 634 21 578C25 573 30 570 36 569L36 385C36 355 52 340 84 340C101 340 118 354 118 373C118 392 107 366 107 428L107 518C107 541 109 572 120 616C124 632 125 644 125 651Z"  horiz-adv-x="161" vert-adv-y="800"  />

      
      <glyph glyph-name="uniac" unicode="&#xac;" d="M449 395C449 406 444 412 428 423C401 416 382 413 370 413L157 413C141 413 80 421 60 421C39 421 19 394 19 373C19 362 23 348 32 333L368 333L368 60C368 20 389 0 430 0C439 0 448 7 457 22C451 48 448 67 448 79L448 334C448 357 449 373 449 384Z"  horiz-adv-x="532" vert-adv-y="800"  />

      
      <glyph glyph-name="unib5" unicode="&#xb5;" d="M44-211C60-271 75-272 108-272C137-272 151-262 151-243C151-237 148-226 141-210C118-154 113-69 113 15C132 0 155-6 172-6C197-6 221 2 246 19C253-7 270-20 297-20C323-20 336-12 336 3C336 22 331 49 331 169C331 205 346 322 346 357C346 388 315 410 283 410C256 410 237 394 237 382C237 375 247 349 247 330L247 210C247 118 216 63 169 63C133 63 115 107 115 143C115 325 127 343 127 380C127 411 111 427 79 427C64 427 48 420 29 405C29 349 25 235 25 153C25-88 25-136 44-211Z"  horiz-adv-x="383" vert-adv-y="800"  />

      
      <glyph glyph-name="uni2122" unicode="&#x2122;" d="M170 620C170 638 154 647 121 647C106 647 85 644 59 640C26 634 10 628 10 621C11 606 21 598 41 598C42 598 45 598 51 599C59 599 62 598 62 589L58 548C56 532 55 518 55 506L55 481C55 448 67 432 91 432C92 432 98 434 109 437L109 454C104 462 101 477 101 498C101 526 104 561 110 604L121 604C130 604 139 602 149 599C163 599 170 606 170 620ZM404 440C404 464 396 474 396 474C396 479 394 488 394 491C394 506 391 548 391 567C391 595 395 617 403 632C403 647 394 655 376 655C357 655 346 647 341 632C334 601 329 573 324 549C319 524 314 493 303 493C300 493 294 510 285 543C276 574 271 594 270 602L263 641C253 649 245 653 238 653C212 653 199 645 199 629C199 624 204 617 204 617C204 604 203 583 201 556C200 529 199 509 199 496C199 484 201 472 205 460C211 444 219 436 228 436C246 436 255 445 254 462L247 469C240 500 237 524 237 541C237 556 239 573 242 591L263 512C275 469 288 447 299 446C318 444 334 465 342 509L356 587L357 583L361 497C363 452 369 429 376 429C391 429 401 433 404 440Z"  horiz-adv-x="431" vert-adv-y="800"  />

      
      <glyph glyph-name="unid0" unicode="&#xd0;" d="M415 326C415 357 366 377 329 377C306 377 244 371 160 367C160 450 177 514 233 573C265 606 297 623 330 623C410 623 450 555 450 419C450 364 445 314 434 269C407 152 323 55 239 55C186 55 160 86 160 149L160 303C171 303 183 304 196 304C388 304 353 286 376 286C408 286 415 291 415 326ZM549 415C549 584 465 696 322 696C259 696 211 671 177 621C178 623 178 626 178 630C178 658 149 681 118 681C94 681 74 665 74 641C74 637 76 629 76 626C76 573 74 494 71 386C71 379 70 371 70 364L11 364C0 364 0 350 0 326C0 305 30 280 48 280C55 280 60 281 68 284C67 227 67 181 67 146C67 85 74 35 87-3C98-12 107-16 115-16C129-16 143-10 156 3C181-11 211-18 246-18C343-18 420 32 477 132C525 216 549 310 549 415Z"  horiz-adv-x="598" vert-adv-y="800"  />

      
      <glyph glyph-name="unibd" unicode="&#xbd;" d="M149 651C149 668 126 695 107 695C80 695 45 634 45 578C49 573 54 570 60 569L60 385C60 355 76 340 108 340C125 340 142 354 142 373C142 392 131 366 131 428L131 518C131 541 133 572 144 616C148 632 149 644 149 651ZM434 622C434 653 402 675 370 675C357 675 347 671 339 662C321 641 301 619 185 378C96 192 61 86 61 35C61 6 78-8 111-8C130-8 146 7 146 24C146 31 142 39 134 46C149 107 184 198 244 317C305 438 351 521 388 566C416 586 434 603 434 622ZM524 45C524 68 506 91 482 90C447 88 413 85 378 78C438 121 490 192 490 249C490 301 441 344 392 344C331 344 250 281 250 217C250 200 279 178 293 178C351 178 308 279 389 279C402 279 413 269 413 257C413 214 356 137 287 84C256 60 249 50 249 30C249 5 269-11 293-11C296-11 303-9 313-6C360 9 407 16 456 16C465 16 483 9 490 9C509 9 524 30 524 45Z"  horiz-adv-x="569" vert-adv-y="800"  />

      
      <glyph glyph-name="unib1" unicode="&#xb1;" d="M545 358C545 369 537 379 521 388C492 381 471 378 457 378L323 378L323 435C323 446 326 463 331 484C336 506 339 523 339 534C339 544 331 553 316 562C301 571 288 575 277 575C265 575 250 570 232 561L232 378L177 378C165 378 147 379 124 382C101 385 83 386 71 386C47 386 25 361 25 336C25 325 30 311 40 294L232 294L232 156C232 115 255 94 301 94C313 94 324 101 334 116C327 143 323 163 323 176L323 294L479 294C523 294 545 315 545 358ZM545 29C545 40 537 50 521 59C494 52 472 49 457 49L177 49C165 49 147 50 124 53C101 56 83 57 71 57C47 57 25 32 25 7C25-4 30-18 40-35L479-35C523-35 545-14 545 29Z"  horiz-adv-x="596" vert-adv-y="800"  />

      
      <glyph glyph-name="unide" unicode="&#xde;" d="M253 145C202 145 146 188 120 227C120 278 121 320 125 376C160 437 228 505 292 505C375 505 398 426 398 355C398 261 365 145 253 145ZM157 627C157 644 118 671 102 671C67 671 36 639 35 610C30 485 27 356 27 240C27 110 27-8 103-8C112-8 143-2 155 18C139 39 129 70 124 111C159 84 207 65 267 65C423 65 479 231 479 366C479 482 430 579 286 579C243 579 176 557 133 497C136 556 157 603 157 627Z"  horiz-adv-x="513" vert-adv-y="800"  />

      
      <glyph glyph-name="unibc" unicode="&#xbc;" d="M149 651C149 668 126 695 107 695C80 695 45 634 45 578C49 573 54 570 60 569L60 385C60 355 76 340 108 340C125 340 142 354 142 373C142 392 131 366 131 428L131 518C131 541 133 572 144 616C148 632 149 644 149 651ZM440 622C440 653 408 675 376 675C363 675 353 671 345 662C327 641 307 619 191 378C102 192 67 86 67 35C67 6 84-8 117-8C136-8 152 7 152 24C152 31 148 39 140 46C155 107 190 198 250 317C311 438 357 521 394 566C422 586 440 603 440 622ZM391 148C372 145 362 147 308 139C333 167 365 190 397 215C394 191 392 171 391 148ZM513 72C536 72 542 89 542 108C542 137 510 150 466 150L485 267C490 278 494 290 494 301C494 324 474 342 450 342C426 342 413 328 390 300C280 198 214 167 214 122C214 97 260 66 287 66C306 66 345 72 388 75C388 66 387 55 387 48C387 1 406-15 435-15C467-15 474 12 474 22C466 38 462 59 461 78L503 75Z"  horiz-adv-x="587" vert-adv-y="800"  />

      
      <glyph glyph-name="unif7" unicode="&#xf7;" d="M352 142C352 179 311 205 274 205C249 205 219 176 219 151C219 120 268 88 297 88C324 88 352 115 352 142ZM361 520C361 548 328 574 298 574C255 574 219 553 219 518C219 489 256 463 290 463C326 463 361 485 361 520ZM545 358C545 369 537 379 521 388C494 381 472 378 457 378L177 378C157 378 91 386 71 386C47 386 25 361 25 336C25 325 30 311 40 294L479 294C523 294 545 315 545 358Z"  horiz-adv-x="596" vert-adv-y="800"  />

      
      <glyph glyph-name="unia6" unicode="&#xa6;" d="M139 27C139 32 137 39 134 49C123 82 113 141 113 225L113 264C113 279 93 287 70 287C49 287 28 279 28 264L28 149C28 39 49-16 91-16C116-16 139 3 139 27ZM126 587C126 587 139 620 139 639C139 668 106 690 77 690C64 690 46 683 25 668C25 653 31 615 31 599C31 556 29 494 29 414C29 398 51 389 72 389C93 389 113 397 113 414C113 489 116 546 126 587Z"  horiz-adv-x="171" vert-adv-y="800"  />

      
      <glyph glyph-name="unib0" unicode="&#xb0;" d="M241 517C241 494 234 473 220 453C204 432 185 421 162 421C125 421 106 448 106 503C106 539 131 586 160 606C165 599 176 593 192 586C208 580 219 574 226 567C236 556 241 540 241 517ZM322 517C322 554 312 585 292 611C270 639 241 651 206 651L203 651L198 662C175 672 158 677 145 677C136 677 123 673 108 664C82 650 61 626 46 593C32 563 25 532 25 501C25 410 81 352 170 352C218 352 256 368 283 400C309 430 322 469 322 517Z"  horiz-adv-x="363" vert-adv-y="800"  />

      
      <glyph glyph-name="unife" unicode="&#xfe;" d="M193 40C178 40 163 49 149 67C130 91 117 105 110 109C113 229 136 370 212 370C272 370 272 248 272 212C272 96 244 40 193 40ZM363 212C363 265 359 295 354 318C338 390 270 453 198 453C167 453 142 441 123 418C123 447 142 593 142 647C142 674 127 709 83 709C66 709 54 699 45 686C41 526 38 369 32 212C26 67 22 23 22-75C22-118 22-163 34-211C50-271 65-272 98-272C127-272 141-263 141-238C141-234 138-225 131-210C112-166 108-116 108-67C108-44 109-22 109 1C132-18 160-27 193-27C293-27 363 71 363 212Z"  horiz-adv-x="407" vert-adv-y="800"  />

      
      <glyph glyph-name="unibe" unicode="&#xbe;" d="M342 472C342 513 320 541 276 557C292 578 302 601 302 625C302 672 265 700 216 700C148 700 55 627 55 591C55 572 79 562 98 562C111 562 150 582 158 609C172 618 203 630 216 630C223 630 226 627 226 621C226 593 192 561 149 558C103 555 98 533 98 514C98 493 108 483 128 483C144 483 206 499 206 503C231 503 262 488 262 469C262 438 215 410 170 410C152 410 139 412 132 417C121 436 107 459 84 459C67 459 45 442 45 422C45 368 130 344 183 344C256 344 342 393 342 472ZM586 622C586 653 554 675 522 675C509 675 499 671 491 662C473 641 453 619 337 378C248 192 213 86 213 35C213 6 230-8 263-8C282-8 298 7 298 24C298 31 294 39 286 46C301 107 336 198 396 317C457 438 503 521 540 566C568 586 586 603 586 622ZM533 148C514 145 504 147 450 139C475 167 507 190 539 215C536 191 534 171 533 148ZM655 72C678 72 684 89 684 108C684 137 652 150 608 150L627 267C632 278 636 290 636 301C636 324 616 342 592 342C568 342 555 328 532 300C422 198 356 167 356 122C356 97 402 66 429 66C448 66 487 72 530 75C530 66 529 55 529 48C529 1 548-15 577-15C609-15 616 12 616 22C608 38 604 59 603 78L645 75Z"  horiz-adv-x="729" vert-adv-y="800"  />

      
      <glyph glyph-name="unib2" unicode="&#xb2;" d="M295 393C295 416 277 439 253 438C218 436 184 433 149 426C209 469 261 540 261 597C261 649 212 692 163 692C102 692 21 629 21 565C21 548 50 526 64 526C122 526 79 627 160 627C173 627 184 617 184 605C184 562 127 485 58 432C27 408 20 398 20 378C20 353 40 337 64 337C67 337 74 339 84 342C131 357 178 364 227 364C236 364 254 357 261 357C280 357 295 378 295 393Z"  horiz-adv-x="334" vert-adv-y="800"  />

      
      <glyph glyph-name="uniae" unicode="&#xae;" d="M370 493C370 450 354 413 321 383C320 402 310 418 293 432L242 465L286 493C298 504 304 521 304 543C304 570 291 591 266 606C246 617 222 623 194 623C187 623 170 629 162 629C162 629 156 625 143 616C134 610 130 605 130 600C130 589 136 584 147 584L142 552L137 493C121 489 113 482 113 472C113 465 121 458 137 452L139 452C138 398 148 371 170 371C183 371 189 378 189 391C181 401 177 416 177 436L177 447C184 448 188 448 188 448C197 448 217 438 246 418C275 398 291 383 292 374L304 370C276 351 245 341 210 341C166 341 128 356 97 385C66 415 50 451 50 493C50 535 66 571 97 600C128 630 166 645 210 645C254 645 292 630 323 600C354 571 370 535 370 493ZM266 545C266 514 232 483 200 483C197 483 189 485 176 490C177 513 178 530 182 543L194 587L201 587C244 587 266 573 266 545ZM410 493C410 545 390 590 351 627C312 664 265 683 210 683C155 683 107 664 68 627C29 590 10 545 10 493C10 441 29 396 68 359C107 322 155 303 210 303C265 303 312 322 351 359C390 396 410 441 410 493Z"  horiz-adv-x="439" vert-adv-y="800"  />

      
      <glyph glyph-name="uni2212" unicode="&#x2212;" d="M545 358C545 369 537 379 521 388C494 381 472 378 457 378L177 378C165 378 147 379 124 382C101 385 83 386 71 386C47 386 25 361 25 336C25 325 30 311 40 294L479 294C523 294 545 315 545 358Z"  horiz-adv-x="596" vert-adv-y="800"  />

      
      <glyph glyph-name="unif0" unicode="&#xf0;" d="M270 174C270 99 235 37 180 37C132 37 105 83 105 155C105 236 145 309 200 309C244 309 270 254 270 174ZM338 581C338 604 314 626 290 626C275 626 252 615 209 580C180 619 131 672 84 672C72 672 38 666 38 623C38 615 40 605 47 589C82 589 117 557 142 525C115 501 53 456 53 430C53 422 87 384 107 384C134 384 143 437 182 466C197 442 210 412 221 383C208 386 196 388 186 388C94 388 22 264 22 152C22 39 76-28 180-28C280-28 347 64 347 173C347 268 315 411 251 520C304 560 338 553 338 581Z"  horiz-adv-x="379" vert-adv-y="800"  />

      
      </font>
</defs>
</svg>
